<svg width="113" height="113" viewBox="0 0 113 113" fill="none" xmlns="http://www.w3.org/2000/svg">
<circle cx="56.694" cy="56.2112" r="52.5" transform="rotate(90 56.694 56.2112)" stroke="#FEFEFF" stroke-width="7"/>
<mask id="path-2-inside-1_56_2321" fill="white">
<path fill-rule="evenodd" clip-rule="evenodd" d="M75.3968 41.9139L75.3968 73.4139C75.3968 75.3469 73.8298 76.9139 71.8968 76.9139L40.3968 76.9139C38.4638 76.9139 36.8968 75.3469 36.8968 73.4139C36.8968 71.4809 38.4638 69.9139 40.3968 69.9139L63.4471 69.9139L36.5415 43.0083L41.4912 38.0586L68.3968 64.9642L68.3968 41.9139C68.3968 39.9809 69.9638 38.4139 71.8968 38.4139C73.8298 38.4139 75.3968 39.9809 75.3968 41.9139Z"/>
</mask>
<path fill-rule="evenodd" clip-rule="evenodd" d="M75.3968 41.9139L75.3968 73.4139C75.3968 75.3469 73.8298 76.9139 71.8968 76.9139L40.3968 76.9139C38.4638 76.9139 36.8968 75.3469 36.8968 73.4139C36.8968 71.4809 38.4638 69.9139 40.3968 69.9139L63.4471 69.9139L36.5415 43.0083L41.4912 38.0586L68.3968 64.9642L68.3968 41.9139C68.3968 39.9809 69.9638 38.4139 71.8968 38.4139C73.8298 38.4139 75.3968 39.9809 75.3968 41.9139Z" fill="#0D011C" stroke="#FEFEFF" stroke-width="14" mask="url(#path-2-inside-1_56_2321)"/>
</svg>
