<svg width="537" height="69" viewBox="0 0 537 69" fill="none" xmlns="http://www.w3.org/2000/svg">
<g clip-path="url(#clip0_59_30)">
<path d="M83.1033 3.81369C74.2651 3.81369 66.2938 7.62971 60.7155 13.7144L70.6999 28.926C72.8494 24.1723 77.5997 20.8612 83.1033 20.8612C90.6233 20.8612 96.7405 27.0376 96.7405 34.6303C96.7405 42.223 90.6233 48.3995 83.1033 48.3995C78.0186 48.3995 73.8137 45.4325 71.2356 41.4001C58.1017 20.8612 60.0823 23.7494 55.8321 17.0484C54.7995 15.4191 53.5592 13.7307 53.2475 13.3996C47.6854 7.49857 39.8375 3.81369 31.1519 3.81369C14.3229 3.81369 0.630432 17.6386 0.630432 34.6303C0.630432 51.6221 14.3229 65.447 31.1519 65.447C40.0356 65.447 48.0426 61.5949 53.6241 55.4578L43.7079 40.0036C41.6298 44.9342 36.7854 48.3995 31.1519 48.3995C23.6319 48.3995 17.5146 42.223 17.5146 34.6303C17.5146 27.0376 23.6319 20.8612 31.1519 20.8612C36.1684 20.8612 40.422 23.697 42.9286 27.6999C53.2312 44.1376 54.1891 45.4129 58.6472 52.4023C59.7966 54.2022 61.6539 56.5462 62.261 57.1199C67.7192 62.2801 75.0508 65.447 83.1033 65.447C99.9323 65.447 113.625 51.6221 113.625 34.6303C113.625 17.6386 99.9323 3.81369 83.1033 3.81369Z" fill="#FF9F00"/>
</g>
<path d="M142.435 67.63V7.50089H153.412V67.63H142.435ZM164.09 67.63V23.7236H174.017V32.3596L173.21 30.8261C174.232 28.1896 175.9 26.1988 178.214 24.8536C180.582 23.4546 183.326 22.7551 186.446 22.7551C189.675 22.7551 192.527 23.4546 195.002 24.8536C197.531 26.2526 199.495 28.2165 200.894 30.7454C202.293 33.2205 202.992 36.0992 202.992 39.3814V67.63H192.419V41.8834C192.419 39.9464 192.042 38.2784 191.289 36.8794C190.536 35.4804 189.487 34.4043 188.141 33.651C186.85 32.8439 185.317 32.4403 183.541 32.4403C181.819 32.4403 180.286 32.8439 178.94 33.651C177.595 34.4043 176.546 35.4804 175.793 36.8794C175.039 38.2784 174.663 39.9464 174.663 41.8834V67.63H164.09ZM217.017 67.63V33.1667H209.269V23.7236H217.017V22.2709C217.017 18.9348 217.69 16.11 219.035 13.7963C220.434 11.4288 222.371 9.62626 224.846 8.3887C227.321 7.15114 230.254 6.53237 233.644 6.53237C234.289 6.53237 234.989 6.58617 235.742 6.69378C236.549 6.74759 237.222 6.8283 237.76 6.93592V16.0562C237.222 15.9486 236.711 15.8948 236.226 15.8948C235.796 15.8409 235.392 15.814 235.016 15.814C232.648 15.814 230.819 16.3521 229.527 17.4282C228.236 18.4506 227.59 20.0648 227.59 22.2709V23.7236H246.799V33.1667H227.59V67.63H217.017ZM242.845 67.63V23.7236H253.498V67.63H242.845ZM262.298 67.63V23.7236H272.225V32.3596L271.418 30.8261C272.44 28.1896 274.108 26.1988 276.422 24.8536C278.79 23.4546 281.534 22.7551 284.654 22.7551C287.883 22.7551 290.735 23.4546 293.21 24.8536C295.739 26.2526 297.703 28.2165 299.102 30.7454C300.501 33.2205 301.2 36.0992 301.2 39.3814V67.63H290.627V41.8834C290.627 39.9464 290.25 38.2784 289.497 36.8794C288.744 35.4804 287.695 34.4043 286.349 33.651C285.058 32.8439 283.525 32.4403 281.749 32.4403C280.027 32.4403 278.494 32.8439 277.148 33.651C275.803 34.4043 274.754 35.4804 274.001 36.8794C273.247 38.2784 272.871 39.9464 272.871 41.8834V67.63H262.298ZM310.141 67.63V23.7236H320.714V67.63H310.141ZM310.141 18.8003V7.50089H320.714V18.8003H310.141ZM326.521 67.63L341.856 45.5961L326.44 23.7236H338.87L350.895 41.4799H345.326L357.352 23.7236H369.701L354.366 45.5961L369.62 67.63H357.272L345.407 49.9545H350.815L338.95 67.63H326.521Z" fill="#0D011C"/>
<path d="M393.624 3.81339L393.624 65.4466" stroke="#0D011C" stroke-width="1.17397"/>
<path d="M426.574 30.9822C425.185 30.9822 423.913 30.7278 422.758 30.2191C421.604 29.6908 420.626 28.9767 419.823 28.0766C419.021 27.1766 418.444 26.1689 418.092 25.0537L420.586 24.0264C421.115 25.4352 421.897 26.5211 422.934 27.2842C423.991 28.0277 425.224 28.3995 426.632 28.3995C427.493 28.3995 428.247 28.2625 428.892 27.9886C429.538 27.7147 430.037 27.3331 430.389 26.844C430.761 26.3352 430.947 25.7483 430.947 25.083C430.947 24.1634 430.683 23.4395 430.154 22.9112C429.646 22.3633 428.892 21.9524 427.894 21.6785L423.874 20.4458C422.289 19.9567 421.076 19.1838 420.234 18.1273C419.393 17.0707 418.972 15.8576 418.972 14.488C418.972 13.2944 419.256 12.2476 419.823 11.3476C420.41 10.428 421.213 9.71383 422.23 9.20511C423.267 8.67682 424.441 8.41268 425.752 8.41268C427.063 8.41268 428.247 8.64747 429.303 9.11706C430.379 9.58665 431.289 10.2225 432.033 11.0248C432.776 11.8074 433.324 12.7074 433.676 13.7249L431.211 14.7521C430.741 13.5194 430.037 12.59 429.098 11.9639C428.159 11.3182 427.053 10.9954 425.781 10.9954C424.999 10.9954 424.304 11.1324 423.697 11.4063C423.11 11.6607 422.651 12.0422 422.318 12.5509C422.005 13.0401 421.848 13.627 421.848 14.3119C421.848 15.1141 422.103 15.8282 422.612 16.4544C423.12 17.0805 423.893 17.5598 424.93 17.8925L428.599 18.9784C430.321 19.5067 431.622 20.26 432.502 21.2383C433.383 22.2166 433.823 23.4297 433.823 24.8776C433.823 26.0711 433.51 27.1277 432.884 28.0473C432.277 28.9669 431.426 29.6908 430.33 30.2191C429.254 30.7278 428.002 30.9822 426.574 30.9822ZM448.482 30.9822C446.937 30.9822 445.489 30.7083 444.139 30.1604C442.789 29.593 441.605 28.8006 440.587 27.7831C439.59 26.7657 438.807 25.5722 438.24 24.2025C437.672 22.8133 437.388 21.3067 437.388 19.6828C437.388 18.0392 437.672 16.5326 438.24 15.163C438.807 13.7934 439.59 12.5998 440.587 11.5824C441.605 10.565 442.779 9.78231 444.109 9.23446C445.459 8.6866 446.917 8.41268 448.482 8.41268C450.048 8.41268 451.496 8.69639 452.826 9.2638C454.176 9.81166 455.35 10.5943 456.348 11.6117C457.365 12.6096 458.158 13.7934 458.725 15.163C459.312 16.5326 459.606 18.0392 459.606 19.6828C459.606 21.3067 459.312 22.8133 458.725 24.2025C458.158 25.5722 457.365 26.7657 456.348 27.7831C455.35 28.8006 454.176 29.593 452.826 30.1604C451.496 30.7083 450.048 30.9822 448.482 30.9822ZM448.482 28.3114C449.695 28.3114 450.801 28.0962 451.799 27.6657C452.797 27.2157 453.658 26.5994 454.382 25.8167C455.125 25.0145 455.693 24.0949 456.084 23.0579C456.495 22.0013 456.7 20.8763 456.7 19.6828C456.7 18.4892 456.495 17.374 456.084 16.337C455.693 15.3 455.125 14.3901 454.382 13.6075C453.658 12.8053 452.797 12.1889 451.799 11.7585C450.801 11.3085 449.695 11.0835 448.482 11.0835C447.289 11.0835 446.193 11.3085 445.195 11.7585C444.197 12.1889 443.327 12.8053 442.583 13.6075C441.859 14.3901 441.292 15.3 440.881 16.337C440.47 17.374 440.265 18.4892 440.265 19.6828C440.265 20.8763 440.47 22.0013 440.881 23.0579C441.292 24.0949 441.859 25.0145 442.583 25.8167C443.327 26.5994 444.197 27.2157 445.195 27.6657C446.193 28.0962 447.289 28.3114 448.482 28.3114ZM473.867 30.9822C472.322 30.9822 470.893 30.7083 469.582 30.1604C468.291 29.593 467.156 28.8006 466.178 27.7831C465.219 26.7657 464.476 25.5722 463.947 24.2025C463.419 22.8329 463.155 21.3361 463.155 19.7121C463.155 18.0686 463.419 16.562 463.947 15.1923C464.476 13.8227 465.219 12.6292 466.178 11.6117C467.137 10.5943 468.271 9.81166 469.582 9.2638C470.893 8.69639 472.322 8.41268 473.867 8.41268C475.374 8.41268 476.724 8.67682 477.918 9.20511C479.131 9.73339 480.148 10.4182 480.97 11.2595C481.811 12.1009 482.408 13.0009 482.76 13.9597L480.119 15.163C479.61 13.9499 478.818 12.9716 477.741 12.2281C476.665 11.465 475.374 11.0835 473.867 11.0835C472.341 11.0835 470.981 11.4454 469.788 12.1694C468.614 12.8933 467.694 13.901 467.029 15.1923C466.364 16.4837 466.031 17.9903 466.031 19.7121C466.031 21.4144 466.364 22.9112 467.029 24.2025C467.694 25.4939 468.614 26.5016 469.788 27.2255C470.981 27.9494 472.341 28.3114 473.867 28.3114C475.374 28.3114 476.665 27.9397 477.741 27.1962C478.818 26.4331 479.61 25.445 480.119 24.2319L482.76 25.4352C482.408 26.3939 481.811 27.294 480.97 28.1353C480.148 28.9767 479.131 29.6615 477.918 30.1898C476.724 30.7181 475.374 30.9822 473.867 30.9822ZM486.672 30.63V8.76487H489.549V30.63H486.672ZM492.298 30.63L500.134 8.76487H503.538L511.375 30.63H508.293L506.503 25.4939H497.17L495.379 30.63H492.298ZM498.08 22.8525H505.593L501.425 10.8487H502.247L498.08 22.8525ZM514.13 30.63V8.76487H517.006V27.9886H526.603V30.63H514.13ZM424.813 67.9822C423.58 67.9822 422.484 67.7572 421.526 67.3072C420.567 66.8376 419.814 66.1821 419.266 65.3408C418.737 64.4799 418.473 63.4918 418.473 62.3765C418.473 61.4178 418.649 60.5764 419.002 59.8525C419.354 59.109 419.784 58.4731 420.293 57.9448C420.821 57.4165 421.35 56.9763 421.878 56.6241C422.426 56.2523 422.876 55.9588 423.228 55.7436L424.901 54.7751C425.468 54.4424 426.016 54.0805 426.544 53.6891C427.073 53.2978 427.513 52.8478 427.865 52.3391C428.217 51.8108 428.393 51.2238 428.393 50.5781C428.393 49.8151 428.139 49.1792 427.63 48.6704C427.122 48.1617 426.486 47.9074 425.723 47.9074C424.959 47.9074 424.324 48.1617 423.815 48.6704C423.306 49.1792 423.052 49.8248 423.052 50.6075C423.052 51.1358 423.179 51.6543 423.433 52.163C423.688 52.6717 424.001 53.1609 424.373 53.6304C424.744 54.0805 425.116 54.5011 425.488 54.8925L437.374 67.63H433.764L423.345 56.6534C422.876 56.1643 422.406 55.6262 421.937 55.0392C421.467 54.4522 421.066 53.8065 420.733 53.1022C420.42 52.3782 420.264 51.5858 420.264 50.7249C420.264 49.6683 420.508 48.7487 420.997 47.9661C421.506 47.1638 422.171 46.5377 422.993 46.0877C423.815 45.6377 424.725 45.4127 425.723 45.4127C426.701 45.4127 427.591 45.6377 428.393 46.0877C429.215 46.5182 429.871 47.1247 430.36 47.9074C430.849 48.69 431.093 49.59 431.093 50.6075C431.093 51.6445 430.849 52.5543 430.36 53.337C429.871 54.1 429.284 54.7555 428.599 55.3034C427.914 55.8316 427.268 56.2719 426.662 56.6241L425.018 57.6219C424.529 57.935 424.011 58.3068 423.463 58.7372C422.915 59.1481 422.445 59.647 422.054 60.234C421.663 60.8014 421.467 61.496 421.467 62.3178C421.467 63.2961 421.78 64.0592 422.406 64.607C423.052 65.1549 423.883 65.4288 424.901 65.4288C425.546 65.4288 426.124 65.3212 426.632 65.106C427.141 64.8907 427.591 64.607 427.982 64.2548C428.393 63.9027 428.755 63.5211 429.068 63.1102C429.381 62.6798 429.675 62.2591 429.949 61.8482L433.324 56.8295H436.464L432.502 62.8754C432.209 63.3646 431.837 63.9027 431.387 64.4896C430.937 65.0766 430.409 65.6343 429.802 66.1625C429.196 66.6908 428.481 67.1311 427.66 67.4833C426.857 67.8159 425.908 67.9822 424.813 67.9822ZM446.26 67.63V45.7649H448.901L457.09 57.4165H455.74L463.869 45.7649H466.511V67.63H463.605V49.4042L464.632 49.727L456.503 61.1732H456.268L448.226 49.727L449.136 49.4042V67.63H446.26ZM471.367 67.63V45.7649H485.602V48.4063H474.243V55.3327H485.015V57.9741H474.243V64.9886H485.602V67.63H471.367ZM489.166 67.63V45.7649H496.327C498.538 45.7649 500.465 46.2149 502.109 47.1149C503.752 48.015 505.024 49.2868 505.924 50.9303C506.824 52.5543 507.274 54.4718 507.274 56.6828C507.274 58.8742 506.824 60.7916 505.924 62.4352C505.024 64.0788 503.752 65.3603 502.109 66.2799C500.465 67.18 498.538 67.63 496.327 67.63H489.166ZM492.042 64.9886H496.356C497.98 64.9886 499.379 64.6462 500.553 63.9614C501.747 63.2765 502.666 62.3178 503.312 61.0851C503.958 59.8329 504.281 58.3654 504.281 56.6828C504.281 54.9805 503.948 53.5131 503.283 52.2804C502.637 51.0477 501.718 50.0988 500.524 49.4335C499.35 48.7487 497.961 48.4063 496.356 48.4063H492.042V64.9886ZM510.92 67.63V45.7649H513.796V67.63H510.92ZM516.545 67.63L524.381 45.7649H527.786L535.622 67.63H532.541L530.75 62.4939H521.417L519.627 67.63H516.545ZM522.327 59.8525H529.84L525.673 47.8487H526.495L522.327 59.8525Z" fill="#0D011C"/>
<defs>
<clipPath id="clip0_59_30">
<rect width="112.994" height="61.6333" fill="white" transform="translate(0.630005 3.81339)"/>
</clipPath>
</defs>
</svg>
