<svg width="113" height="62" viewBox="0 0 113 62" fill="none" xmlns="http://www.w3.org/2000/svg">
<g clip-path="url(#clip0_286_27)">
<path d="M82.4733 0.000305176C73.6351 0.000305176 65.6638 3.81632 60.0855 9.90097L70.0699 25.1126C72.2194 20.359 76.9697 17.0478 82.4733 17.0478C89.9933 17.0478 96.1105 23.2242 96.1105 30.8169C96.1105 38.4096 89.9933 44.5861 82.4733 44.5861C77.3885 44.5861 73.1837 41.6192 70.6056 37.5868C57.4717 17.0478 59.4523 19.936 55.202 13.2351C54.1695 11.6057 52.9292 9.91736 52.6175 9.58624C47.0554 3.68519 39.2075 0.000305176 30.5219 0.000305176C13.6929 0.000305176 0.000419617 13.8252 0.000419617 30.8169C0.000419617 47.8087 13.6929 61.6336 30.5219 61.6336C39.4056 61.6336 47.4126 57.7815 52.9941 51.6444L43.0779 36.1902C40.9998 41.1208 36.1554 44.5861 30.5219 44.5861C23.0019 44.5861 16.8846 38.4096 16.8846 30.8169C16.8846 23.2242 23.0019 17.0478 30.5219 17.0478C35.5384 17.0478 39.792 19.8836 42.2986 23.8865C52.6012 40.3242 53.5591 41.5995 58.0172 48.589C59.1666 50.3888 61.0238 52.7328 61.631 53.3065C67.0892 58.4667 74.4208 61.6336 82.4733 61.6336C99.3023 61.6336 112.995 47.8087 112.995 30.8169C112.995 13.8252 99.3023 0.000305176 82.4733 0.000305176Z" fill="#FF9F00"/>
</g>
<defs>
<clipPath id="clip0_286_27">
<rect width="112.994" height="61.6333" fill="white"/>
</clipPath>
</defs>
</svg>
