<svg width="537" height="68" viewBox="0 0 537 68" fill="none" xmlns="http://www.w3.org/2000/svg">
<g clip-path="url(#clip0_60_33)">
<path d="M82.4733 3.18369C73.6351 3.18369 65.6638 6.9997 60.0855 13.0843L70.0699 28.296C72.2194 23.5423 76.9697 20.2312 82.4733 20.2312C89.9933 20.2312 96.1105 26.4076 96.1105 34.0003C96.1105 41.593 89.9933 47.7695 82.4733 47.7695C77.3885 47.7695 73.1837 44.8025 70.6056 40.7701C57.4717 20.2312 59.4523 23.1194 55.202 16.4184C54.1695 14.7891 52.9292 13.1007 52.6175 12.7696C47.0554 6.86857 39.2075 3.18369 30.5219 3.18369C13.6929 3.18369 0.000427246 17.0085 0.000427246 34.0003C0.000427246 50.9921 13.6929 64.8169 30.5219 64.8169C39.4056 64.8169 47.4126 60.9649 52.9941 54.8278L43.0779 39.3736C40.9998 44.3042 36.1554 47.7695 30.5219 47.7695C23.0019 47.7695 16.8846 41.593 16.8846 34.0003C16.8846 26.4076 23.0019 20.2312 30.5219 20.2312C35.5384 20.2312 39.792 23.067 42.2986 27.0699C52.6012 43.5076 53.5591 44.7829 58.0172 51.7723C59.1666 53.5722 61.0239 55.9162 61.631 56.4899C67.0892 61.65 74.4208 64.8169 82.4733 64.8169C99.3023 64.8169 112.995 50.9921 112.995 34.0003C112.995 17.0085 99.3023 3.18369 82.4733 3.18369Z" fill="white"/>
</g>
<path d="M141.805 67V6.87088H152.782V67H141.805ZM163.46 67V23.0936H173.387V31.7296L172.58 30.1961C173.602 27.5596 175.27 25.5688 177.584 24.2236C179.952 22.8246 182.696 22.1251 185.816 22.1251C189.045 22.1251 191.897 22.8246 194.372 24.2236C196.901 25.6226 198.865 27.5865 200.264 30.1154C201.663 32.5905 202.362 35.4692 202.362 38.7514V67H191.789V41.2534C191.789 39.3164 191.412 37.6484 190.659 36.2494C189.906 34.8504 188.857 33.7743 187.511 33.021C186.22 32.2139 184.687 31.8103 182.911 31.8103C181.189 31.8103 179.656 32.2139 178.31 33.021C176.965 33.7743 175.916 34.8504 175.163 36.2494C174.409 37.6484 174.033 39.3164 174.033 41.2534V67H163.46ZM216.387 67V32.5367H208.639V23.0936H216.387V21.6409C216.387 18.3048 217.06 15.48 218.405 13.1663C219.804 10.7988 221.741 8.99625 224.216 7.7587C226.691 6.52114 229.624 5.90236 233.014 5.90236C233.659 5.90236 234.359 5.95617 235.112 6.06378C235.919 6.11759 236.592 6.1983 237.13 6.30591V15.4262C236.592 15.3186 236.081 15.2647 235.596 15.2647C235.166 15.2109 234.762 15.184 234.386 15.184C232.018 15.184 230.189 15.7221 228.897 16.7982C227.606 17.8206 226.96 19.4348 226.96 21.6409V23.0936H246.169V32.5367H226.96V67H216.387ZM242.215 67V23.0936H252.868V67H242.215ZM261.668 67V23.0936H271.595V31.7296L270.788 30.1961C271.81 27.5596 273.478 25.5688 275.792 24.2236C278.159 22.8246 280.904 22.1251 284.024 22.1251C287.253 22.1251 290.105 22.8246 292.58 24.2236C295.109 25.6226 297.073 27.5865 298.472 30.1154C299.871 32.5905 300.57 35.4692 300.57 38.7514V67H289.997V41.2534C289.997 39.3164 289.62 37.6484 288.867 36.2494C288.114 34.8504 287.065 33.7743 285.719 33.021C284.428 32.2139 282.894 31.8103 281.119 31.8103C279.397 31.8103 277.864 32.2139 276.518 33.021C275.173 33.7743 274.124 34.8504 273.371 36.2494C272.617 37.6484 272.241 39.3164 272.241 41.2534V67H261.668ZM309.511 67V23.0936H320.084V67H309.511ZM309.511 18.1703V6.87088H320.084V18.1703H309.511ZM325.891 67L341.226 44.9661L325.81 23.0936H338.24L350.265 40.8499H344.696L356.722 23.0936H369.071L353.736 44.9661L368.99 67H356.642L344.777 49.3245H350.185L338.32 67H325.891Z" fill="white"/>
<path d="M392.994 3.18338L392.994 64.8166" stroke="white" stroke-width="1.17397"/>
<path d="M425.944 30.3522C424.554 30.3522 423.283 30.0978 422.128 29.5891C420.974 29.0608 419.996 28.3467 419.193 27.4466C418.391 26.5466 417.814 25.5389 417.462 24.4237L419.956 23.3964C420.485 24.8052 421.267 25.8911 422.304 26.6542C423.361 27.3977 424.594 27.7695 426.002 27.7695C426.863 27.7695 427.617 27.6325 428.262 27.3586C428.908 27.0846 429.407 26.7031 429.759 26.214C430.131 25.7052 430.317 25.1183 430.317 24.453C430.317 23.5334 430.053 22.8095 429.524 22.2812C429.016 21.7333 428.262 21.3224 427.264 21.0485L423.244 19.8158C421.659 19.3267 420.446 18.5538 419.604 17.4973C418.763 16.4407 418.342 15.2276 418.342 13.858C418.342 12.6644 418.626 11.6176 419.193 10.7176C419.78 9.79798 420.583 9.08382 421.6 8.5751C422.637 8.04682 423.811 7.78267 425.122 7.78267C426.433 7.78267 427.617 8.01747 428.673 8.48705C429.749 8.95664 430.659 9.59254 431.403 10.3948C432.146 11.1774 432.694 12.0774 433.046 13.0949L430.581 14.1221C430.111 12.8894 429.407 11.96 428.468 11.3339C427.529 10.6882 426.423 10.3654 425.151 10.3654C424.369 10.3654 423.674 10.5024 423.067 10.7763C422.48 11.0306 422.021 11.4122 421.688 11.9209C421.375 12.4101 421.218 12.997 421.218 13.6819C421.218 14.4841 421.473 15.1982 421.982 15.8243C422.49 16.4505 423.263 16.9298 424.3 17.2625L427.969 18.3484C429.691 18.8767 430.992 19.63 431.872 20.6083C432.753 21.5866 433.193 22.7997 433.193 24.2476C433.193 25.4411 432.88 26.4977 432.254 27.4173C431.647 28.3369 430.796 29.0608 429.7 29.5891C428.624 30.0978 427.372 30.3522 425.944 30.3522ZM447.852 30.3522C446.307 30.3522 444.859 30.0783 443.509 29.5304C442.159 28.963 440.975 28.1706 439.957 27.1531C438.96 26.1357 438.177 24.9422 437.61 23.5725C437.042 22.1833 436.758 20.6767 436.758 19.0528C436.758 17.4092 437.042 15.9026 437.61 14.533C438.177 13.1634 438.96 11.9698 439.957 10.9524C440.975 9.93495 442.149 9.1523 443.479 8.60445C444.829 8.0566 446.287 7.78267 447.852 7.78267C449.418 7.78267 450.866 8.06638 452.196 8.6338C453.546 9.18165 454.72 9.9643 455.718 10.9817C456.735 11.9796 457.528 13.1634 458.095 14.533C458.682 15.9026 458.976 17.4092 458.976 19.0528C458.976 20.6767 458.682 22.1833 458.095 23.5725C457.528 24.9422 456.735 26.1357 455.718 27.1531C454.72 28.1706 453.546 28.963 452.196 29.5304C450.866 30.0783 449.418 30.3522 447.852 30.3522ZM447.852 27.6814C449.065 27.6814 450.171 27.4662 451.169 27.0357C452.167 26.5857 453.028 25.9694 453.752 25.1867C454.495 24.3845 455.063 23.4649 455.454 22.4279C455.865 21.3713 456.07 20.2463 456.07 19.0528C456.07 17.8592 455.865 16.744 455.454 15.707C455.063 14.6699 454.495 13.7601 453.752 12.9775C453.028 12.1753 452.167 11.5589 451.169 11.1285C450.171 10.6785 449.065 10.4534 447.852 10.4534C446.659 10.4534 445.563 10.6785 444.565 11.1285C443.567 11.5589 442.697 12.1753 441.953 12.9775C441.229 13.7601 440.662 14.6699 440.251 15.707C439.84 16.744 439.635 17.8592 439.635 19.0528C439.635 20.2463 439.84 21.3713 440.251 22.4279C440.662 23.4649 441.229 24.3845 441.953 25.1867C442.697 25.9694 443.567 26.5857 444.565 27.0357C445.563 27.4662 446.659 27.6814 447.852 27.6814ZM473.237 30.3522C471.692 30.3522 470.263 30.0783 468.952 29.5304C467.661 28.963 466.526 28.1706 465.548 27.1531C464.589 26.1357 463.846 24.9422 463.317 23.5725C462.789 22.2029 462.525 20.7061 462.525 19.0821C462.525 17.4386 462.789 15.932 463.317 14.5623C463.846 13.1927 464.589 11.9992 465.548 10.9817C466.507 9.9643 467.641 9.18165 468.952 8.6338C470.263 8.06638 471.692 7.78267 473.237 7.78267C474.744 7.78267 476.094 8.04682 477.288 8.5751C478.501 9.10339 479.518 9.7882 480.34 10.6295C481.181 11.4709 481.778 12.3709 482.13 13.3297L479.489 14.533C478.98 13.3199 478.188 12.3416 477.111 11.5981C476.035 10.835 474.744 10.4534 473.237 10.4534C471.711 10.4534 470.351 10.8154 469.158 11.5394C467.984 12.2633 467.064 13.271 466.399 14.5623C465.734 15.8537 465.401 17.3603 465.401 19.0821C465.401 20.7844 465.734 22.2812 466.399 23.5725C467.064 24.8639 467.984 25.8715 469.158 26.5955C470.351 27.3194 471.711 27.6814 473.237 27.6814C474.744 27.6814 476.035 27.3097 477.111 26.5661C478.188 25.8031 478.98 24.815 479.489 23.6019L482.13 24.8052C481.778 25.7639 481.181 26.664 480.34 27.5053C479.518 28.3467 478.501 29.0315 477.288 29.5598C476.094 30.088 474.744 30.3522 473.237 30.3522ZM486.042 30V8.13486H488.919V30H486.042ZM491.668 30L499.504 8.13486H502.908L510.745 30H507.663L505.873 24.8639H496.54L494.749 30H491.668ZM497.45 22.2225H504.963L500.795 10.2187H501.617L497.45 22.2225ZM513.5 30V8.13486H516.376V27.3586H525.973V30H513.5ZM424.183 67.3522C422.95 67.3522 421.854 67.1272 420.896 66.6772C419.937 66.2076 419.184 65.5521 418.636 64.7108C418.107 63.8499 417.843 62.8618 417.843 61.7465C417.843 60.7878 418.019 59.9464 418.372 59.2225C418.724 58.479 419.154 57.8431 419.663 57.3148C420.191 56.7865 420.72 56.3462 421.248 55.9941C421.796 55.6223 422.246 55.3288 422.598 55.1136L424.271 54.1451C424.838 53.8124 425.386 53.4505 425.914 53.0591C426.443 52.6678 426.883 52.2178 427.235 51.7091C427.587 51.1808 427.763 50.5938 427.763 49.9481C427.763 49.1851 427.509 48.5492 427 48.0404C426.492 47.5317 425.856 47.2774 425.093 47.2774C424.329 47.2774 423.694 47.5317 423.185 48.0404C422.676 48.5492 422.422 49.1948 422.422 49.9775C422.422 50.5058 422.549 51.0243 422.803 51.533C423.058 52.0417 423.371 52.5309 423.743 53.0004C424.114 53.4505 424.486 53.8711 424.858 54.2625L436.744 67H433.134L422.715 56.0234C422.246 55.5343 421.776 54.9962 421.307 54.4092C420.837 53.8222 420.436 53.1765 420.103 52.4722C419.79 51.7482 419.634 50.9558 419.634 50.0949C419.634 49.0383 419.878 48.1187 420.367 47.3361C420.876 46.5338 421.541 45.9077 422.363 45.4577C423.185 45.0077 424.095 44.7827 425.093 44.7827C426.071 44.7827 426.961 45.0077 427.763 45.4577C428.585 45.8882 429.241 46.4947 429.73 47.2774C430.219 48.06 430.463 48.96 430.463 49.9775C430.463 51.0145 430.219 51.9243 429.73 52.707C429.241 53.47 428.654 54.1255 427.969 54.6733C427.284 55.2016 426.638 55.6419 426.032 55.9941L424.388 56.9919C423.899 57.305 423.381 57.6767 422.833 58.1072C422.285 58.5181 421.815 59.017 421.424 59.604C421.033 60.1714 420.837 60.866 420.837 61.6878C420.837 62.6661 421.15 63.4292 421.776 63.977C422.422 64.5249 423.253 64.7988 424.271 64.7988C424.916 64.7988 425.494 64.6912 426.002 64.476C426.511 64.2607 426.961 63.977 427.352 63.6248C427.763 63.2727 428.125 62.8911 428.438 62.4802C428.751 62.0498 429.045 61.6291 429.319 61.2182L432.694 56.1995H435.834L431.872 62.2454C431.579 62.7346 431.207 63.2727 430.757 63.8596C430.307 64.4466 429.779 65.0043 429.172 65.5325C428.566 66.0608 427.851 66.5011 427.03 66.8533C426.227 67.1859 425.278 67.3522 424.183 67.3522ZM445.63 67V45.1349H448.271L456.46 56.7865H455.11L463.239 45.1349H465.881V67H462.975V48.7742L464.002 49.097L455.873 60.5432H455.638L447.596 49.097L448.506 48.7742V67H445.63ZM470.737 67V45.1349H484.972V47.7763H473.613V54.7027H484.385V57.3441H473.613V64.3586H484.972V67H470.737ZM488.536 67V45.1349H495.697C497.908 45.1349 499.835 45.5849 501.479 46.4849C503.122 47.385 504.394 48.6568 505.294 50.3003C506.194 51.9243 506.644 53.8418 506.644 56.0528C506.644 58.2442 506.194 60.1616 505.294 61.8052C504.394 63.4487 503.122 64.7303 501.479 65.6499C499.835 66.55 497.908 67 495.697 67H488.536ZM491.412 64.3586H495.726C497.35 64.3586 498.749 64.0162 499.923 63.3314C501.117 62.6465 502.036 61.6878 502.682 60.4551C503.328 59.2029 503.651 57.7354 503.651 56.0528C503.651 54.3505 503.318 52.883 502.653 51.6504C502.007 50.4177 501.088 49.4688 499.894 48.8035C498.72 48.1187 497.331 47.7763 495.726 47.7763H491.412V64.3586ZM510.29 67V45.1349H513.166V67H510.29ZM515.915 67L523.751 45.1349H527.156L534.992 67H531.91L530.12 61.8639H520.787L518.997 67H515.915ZM521.697 59.2225H529.21L525.043 47.2187H525.865L521.697 59.2225Z" fill="white"/>
<defs>
<clipPath id="clip0_60_33">
<rect width="112.994" height="61.6333" fill="white" transform="translate(0 3.18338)"/>
</clipPath>
</defs>
</svg>
