<svg width="33" height="32" viewBox="0 0 33 32" fill="none" xmlns="http://www.w3.org/2000/svg">
<path d="M23 2.66602H9.66667C5.98477 2.66602 3 5.65078 3 9.33268V22.666C3 26.3479 5.98477 29.3327 9.66667 29.3327H23C26.6819 29.3327 29.6667 26.3479 29.6667 22.666V9.33268C29.6667 5.65078 26.6819 2.66602 23 2.66602Z" stroke="#0D011C" stroke-width="2.66667" stroke-linecap="round" stroke-linejoin="round"/>
<path d="M21.6656 15.1604C21.8302 16.2701 21.6406 17.4034 21.124 18.3991C20.6073 19.3948 19.7898 20.2023 18.7878 20.7066C17.7858 21.211 16.6502 21.3865 15.5427 21.2083C14.4351 21.0301 13.412 20.5072 12.6187 19.714C11.8255 18.9207 11.3026 17.8976 11.1244 16.79C10.9462 15.6825 11.1217 14.5469 11.6261 13.5449C12.1304 12.5429 12.9379 11.7254 13.9336 11.2087C14.9293 10.6921 16.0626 10.5025 17.1723 10.6671C18.3042 10.8349 19.3521 11.3624 20.1612 12.1715C20.9703 12.9806 21.4978 14.0285 21.6656 15.1604Z" stroke="#0D011C" stroke-width="2.66667" stroke-linecap="round" stroke-linejoin="round"/>
<path d="M23.666 8.66602H23.6785" stroke="#0D011C" stroke-width="2.66667" stroke-linecap="round" stroke-linejoin="round"/>
</svg>
