<svg width="33" height="32" viewBox="0 0 33 32" fill="none" xmlns="http://www.w3.org/2000/svg">
<g clip-path="url(#clip0_314_597)">
<path d="M28.3333 3.99974C27.0565 4.90037 25.6428 5.58922 24.1467 6.03974C23.3437 5.11642 22.2764 4.46199 21.0894 4.16497C19.9023 3.86795 18.6527 3.94266 17.5094 4.37901C16.3662 4.81535 15.3846 5.59227 14.6973 6.60469C14.01 7.61711 13.6503 8.81618 13.6667 10.0397V11.3731C11.3235 11.4338 9.0017 10.9142 6.90801 9.86033C4.81432 8.80651 3.01376 7.25125 1.66667 5.33307C1.66667 5.33307 -3.66667 17.3331 8.33333 22.6664C5.58737 24.5304 2.31621 25.465 -1 25.3331C11 31.9997 25.6667 25.3331 25.6667 9.99974C25.6654 9.62834 25.6297 9.25786 25.56 8.89307C26.9208 7.55106 27.8811 5.85669 28.3333 3.99974Z" fill="#0D011C"/>
</g>
<defs>
<clipPath id="clip0_314_597">
<rect width="31.6889" height="32" fill="white" transform="translate(0.799805)"/>
</clipPath>
</defs>
</svg>
