<svg width="71" height="71" viewBox="0 0 71 71" fill="none" xmlns="http://www.w3.org/2000/svg">
<rect x="0.270996" y="0.0168457" width="70.4746" height="70.4746" rx="35.2373" fill="#FF0000"/>
<path d="M57.9334 23.9149C57.3978 21.8852 55.8121 20.2925 53.7966 19.7498C50.146 18.7632 35.5154 18.7632 35.5154 18.7632C35.5154 18.7632 20.8779 18.7632 17.2343 19.7498C15.2188 20.2925 13.6331 21.8852 13.0975 23.9149C12.1108 27.5866 12.1108 35.2542 12.1108 35.2542C12.1108 35.2542 12.1108 42.9219 13.0904 46.5936C13.626 48.6233 15.2117 50.216 17.2273 50.7586C20.8779 51.7453 35.5084 51.7453 35.5084 51.7453C35.5084 51.7453 50.146 51.7453 53.7895 50.7586C55.8051 50.216 57.3908 48.6233 57.9264 46.5936C58.906 42.9219 58.906 35.2542 58.906 35.2542C58.906 35.2542 58.906 27.5866 57.9334 23.9149ZM30.7232 42.2101V28.2984L42.9505 35.2542L30.7232 42.2101Z" fill="white"/>
</svg>
