<svg width="914" height="616" viewBox="0 0 914 616" fill="none" xmlns="http://www.w3.org/2000/svg">
<path d="M324 6.00003C191.329 -15.3044 26.9717 14.8885 86.5 191.5C129.774 319.887 -9.43021 336.22 0.820852 417.513C0.820852 535.247 43.5254 614.297 135.77 614.297C260.85 609.625 484.474 603.085 651.652 614.297C818.83 625.51 885.678 578.604 898.205 553.749C929.522 533.566 897.127 374.829 912.5 191.5C930.633 -24.7316 703.191 66.8907 324 6.00003Z" fill="#DEEAFF"/>
<path d="M490.345 551.975L490.96 563.446L501.816 564.061L500.997 550.951L490.345 551.975Z" fill="#FFB27D"/>
<path d="M444.869 564.47L447.122 550.541L459.413 552.385L453.882 567.133L444.869 564.47Z" fill="#FFB27D"/>
<path d="M439.956 573.074C439.792 564.225 442.892 561.466 444.462 561.193C447.412 567.584 454.568 564.812 457.777 562.627C459.553 564.812 464.906 569.755 472.116 572.05C480.719 576.147 478.876 579.834 472.116 580.858C461.956 581.677 452.725 576.693 449.379 574.098L448.969 575.942C447.74 575.737 444.217 574.877 439.956 573.074Z" fill="#2555A5"/>
<path d="M440.162 572.869V569.796L449.38 573.278L448.765 576.146L440.162 572.869Z" fill="#133A7A"/>
<path d="M487.477 568.978C485.51 565.045 487.75 561.194 489.115 559.76C494.36 562.546 498.811 560.716 500.996 559.35C501.61 559.35 504.314 560.088 504.478 560.58C508.165 563.857 513.286 565.496 516.154 565.905C519.022 566.315 519.022 565.701 522.914 568.159C529.469 573.485 514.515 574.714 514.311 574.714C514.106 574.714 503.249 575.328 501.406 573.485C499.931 572.01 497.24 571.641 496.08 571.641V573.689L487.477 572.665V568.978Z" fill="#2555A5"/>
<path d="M487.511 572.61L487.512 569.706L496.08 571.436L496.08 573.689L487.511 572.61Z" fill="#133A7A"/>
<path d="M380.55 366.799C386.45 366.471 393.66 368.711 396.528 369.872L401.649 363.726C399.6 362.839 395.258 360.531 394.275 358.4C393.046 355.737 392.636 352.87 385.876 350.002C379.116 347.134 381.574 349.797 385.671 352.87C388.949 355.328 386.013 355.055 384.033 354.713L375.839 351.436C368.669 348.568 367.645 349.592 374.2 353.279C378.559 355.731 374.815 355.328 370.923 353.894C364.532 351.764 366.621 354.235 368.465 355.738L372.561 357.991C372.63 358.059 372.234 358.073 370.103 357.581C362.729 356.762 366.348 359.015 369.079 360.244C371.127 360.722 374.814 361.76 373.176 362.088C365.802 360.777 367.372 362.634 369.079 363.726C371.605 364.546 377.437 366.307 380.55 366.799Z" fill="#FFB27D"/>
<path d="M468.632 331.156C464.535 320.832 484.132 325.762 494.442 329.517C494.988 329.858 495.753 331.402 494.442 334.843C489.321 343.651 475.801 341.193 468.632 331.156Z" fill="white"/>
<path d="M484.813 337.097L486.861 334.434L490.344 336.482L489.115 338.735L496.899 368.232L484.813 370.281L486.861 338.735L484.813 337.097Z" fill="#545272"/>
<path d="M471.09 329.314L472.729 314.36L490.755 321.53C490.755 324.124 490.877 330.051 491.369 333.001C485.961 339.392 475.596 333.205 471.09 329.314Z" fill="#FFB27D"/>
<path d="M498.538 309.649C499.357 297.194 497.786 291.486 496.899 290.189C479.692 277.489 464.124 301.25 470.679 313.746C477.234 326.241 487.886 326.651 490.958 325.831C494.031 325.012 497.513 325.217 498.538 309.649Z" fill="#FFB27D"/>
<path d="M468.017 292.646C464.979 305.303 469.86 313.54 472.319 315.998L473.548 311.901C473.275 312.311 472.278 311.819 470.475 306.575C469.451 299.201 474.367 303.298 475.596 304.937C476.825 303.503 478.464 294.899 478.464 293.261C485.347 294.408 494.441 292.783 498.128 291.827C497.719 289.164 495.465 287.115 493.212 284.657C491.369 282.404 471.704 277.283 468.017 292.646Z" fill="#545272"/>
<path d="M563.269 359.22C561.958 361.514 557.67 365.775 555.689 367.618L558.557 373.354L571.257 373.969C574.262 372.944 581.09 370.404 584.367 368.438C587.645 366.471 585.323 366.663 583.753 367.004L580.885 367.618C581.295 367.004 582.892 365.324 586.006 363.522C589.12 361.719 586.211 361.678 584.367 361.883L580.27 363.522C581.431 362.497 583.998 360.203 584.982 359.22C586.825 355.123 581.499 359.22 580.885 359.834C580.393 360.326 578.222 361.405 577.198 361.883C577.266 361.541 578.222 359.916 581.499 356.147C584.982 350.821 579.451 354.713 575.764 358.196C573.142 361.145 569.072 361.2 567.365 360.859C567.502 360.517 568.144 359.343 569.619 357.376C573.306 348.978 564.907 356.352 563.269 359.22Z" fill="#FFB27D"/>
<path d="M453.884 486.836V430.504L506.938 418.419L508.986 428.866V491.957C507.757 511.143 505.299 550.787 505.299 555.867C502.186 558.489 492.258 556.96 487.683 555.867C487.273 537.158 486.454 498.88 486.454 495.439C484.324 493.8 482.698 481.919 482.152 476.184L475.802 503.223C471.705 519.815 463.061 554.515 461.258 560.578C455.195 560.906 447.261 556.755 444.052 554.638C444.735 545.898 446.838 525.755 449.787 515.104C452.737 504.452 453.748 491.82 453.884 486.836Z" fill="#1D468A"/>
<path d="M486.452 455.289C485.633 456.928 483.107 469.355 481.946 475.364C482.833 478.983 484.977 485.688 486.452 483.557C488.296 480.894 487.477 453.241 486.452 455.289Z" fill="#173870"/>
<path d="M489.32 429.89C487.845 433.986 487.067 436.649 486.042 436.445L487.886 446.891C489.456 441.634 491.942 430.873 489.32 429.89Z" fill="#173870"/>
<path d="M395.915 357.99C392.965 360.612 389.906 367.003 388.746 369.871C394.618 373.763 408.82 382.817 418.652 387.897C428.485 392.977 439 384.005 443.029 378.884L451.427 367.412V438.492C451.086 438.288 450.731 438.083 452.042 438.902C466.79 446.071 486.045 439.517 491.166 429.07C502.637 441.032 509.602 435.829 511.65 431.733L506.529 373.353C508.031 375.538 513.535 381.506 523.531 387.897C533.527 393.468 544.63 388.853 548.931 385.848C553.028 383.185 561.836 377.45 564.294 375.811C564.131 372.697 560.539 366.866 558.764 364.34L534.388 370.075C531.11 366.593 522.958 357.211 516.566 347.543C510.995 337.383 502.774 332.658 499.36 331.565L487.889 365.364C481.743 352.937 467.896 328.493 461.669 330.131C453.885 332.18 449.993 334.433 444.667 339.144C440.407 342.914 429.509 360.243 424.593 368.437C416.604 365.501 399.684 359.301 395.915 357.99Z" fill="#F99744"/>
<path d="M493.621 340.578C494.768 333.04 491.914 329.517 490.344 328.697C490.48 328.629 490.835 328.37 491.163 327.878C493.621 328.206 498.332 331.155 500.381 332.589L496.284 343.856C496.489 344.47 497.308 345.822 498.947 346.314C496.98 353.688 491.982 363.862 489.729 368.027C490.548 362.018 492.474 348.116 493.621 340.578Z" fill="#CD7123"/>
<path d="M462.077 329.926C462.569 328.615 467.608 326.512 470.066 325.625C469.042 329.517 474.777 343.856 479.284 349.796C484.528 356.515 488.024 365.432 489.116 369.051L471.705 349.796L474.777 347.338C470.817 342.353 462.733 331.893 462.077 329.926Z" fill="#CD7123"/>
<path d="M457.98 358.605C457.652 359.752 453.473 364.819 451.425 367.209V370.486C453.883 367.96 458.635 362.047 457.98 358.605Z" fill="#C67633"/>
<path d="M505.094 345.29L506.528 372.739L510.624 377.655C510.761 377.791 510.952 377.491 510.624 375.197C510.788 366.839 507.006 351.776 505.094 345.29Z" fill="#C67633"/>
<path d="M473.549 304.732C472.593 304.39 470.968 304.404 472.115 307.19C473.262 309.976 473.686 310.399 473.754 310.263" stroke="#545272"/>
<path d="M472.523 317.432C476.484 321.051 485.674 327.797 490.754 325.83C487.272 330.132 472.523 326.445 472.523 317.432Z" fill="#EC9F6A"/>
<path d="M839.076 583.512L829.089 529.686L832.138 527.794L843.071 583.512H839.076Z" fill="url(#paint0_linear_402_2)"/>
<path d="M805.118 584.457L813.528 539.778L809.639 541.25L800.913 584.457H805.118Z" fill="url(#paint1_linear_402_2)"/>
<path d="M774.107 583.512L766.748 546.087H763.173L770.322 583.512H774.107Z" fill="url(#paint2_linear_402_2)"/>
<path d="M720.822 569.418L730.389 522.005H733.858L724.291 569.418H720.822Z" fill="url(#paint3_linear_402_2)"/>
<path d="M845.711 480.576C839.09 436.51 821.966 423.54 812.138 422.798C768.53 414.632 752.92 454.594 748.708 461.646C744.496 468.699 744.62 486.886 729.258 513.733C713.896 540.581 723.752 516.959 725.486 534.82C848.183 582.128 850.693 513.733 845.711 480.576Z" fill="url(#paint4_linear_402_2)"/>
<path d="M826.829 471.639C824.054 433.877 806.68 423.175 798.34 422.544C761.335 415.606 748.089 449.562 744.514 455.554C740.94 461.547 741.045 477 728.009 499.813C714.974 522.626 720.65 536.502 728.85 538.605C825.568 560.261 828.9 499.813 826.829 471.639Z" fill="url(#paint5_linear_402_2)"/>
<path d="M763.034 524.7C763.739 524.753 827.916 510.263 792.322 510.891C763.847 511.394 760.932 520.307 763.034 524.7Z" fill="#D0A85B"/>
<path d="M56.1828 569.454L66.4116 514.326L63.2891 512.388L52.0912 569.454H56.1828Z" fill="url(#paint6_linear_402_2)"/>
<path d="M90.9626 570.422L82.3489 524.661L86.3327 526.169L95.2695 570.422H90.9626Z" fill="url(#paint7_linear_402_2)"/>
<path d="M122.723 569.453L130.261 531.122H133.921L126.6 569.453H122.723Z" fill="url(#paint8_linear_402_2)"/>
<path d="M177.298 555.019L167.5 506.459H163.947L173.745 555.019H177.298Z" fill="url(#paint9_linear_402_2)"/>
<path d="M49.3897 464.026C56.1708 418.894 73.7093 405.61 83.7756 404.85C128.439 396.487 144.427 437.416 148.741 444.639C153.055 451.862 152.928 470.489 168.662 497.986C184.396 525.484 174.301 501.29 172.525 519.584C46.8582 568.037 44.2872 497.986 49.3897 464.026Z" fill="url(#paint10_linear_402_2)"/>
<path d="M68.7301 454.873C71.5726 416.198 89.3672 405.237 97.9092 404.591C135.81 397.484 149.376 432.262 153.037 438.4C156.698 444.537 156.591 460.365 169.942 483.73C183.293 507.094 177.479 521.307 169.08 523.461C70.0221 545.641 66.6092 483.73 68.7301 454.873Z" fill="url(#paint11_linear_402_2)"/>
<path d="M134.07 509.218C133.347 509.273 67.6169 494.432 104.073 495.076C133.237 495.591 136.223 504.719 134.07 509.218Z" fill="#D0A85B"/>
<path d="M720.003 602.174C698.677 611.102 704.178 593.756 716.636 590.389L707.208 515.641L730.777 525.758L725.839 592.441C725.54 593.131 724.672 599.415 720.003 602.174Z" fill="#FFB27D"/>
<path d="M694.464 600.937C688.996 605.605 692.945 606.622 695.603 606.547L726.585 605.874L727.41 596.673C728.094 595.402 725.726 590.388 715.423 596.673C712.595 598.398 708.892 597.796 707.905 593.756C705.703 594.205 699.931 596.27 694.464 600.937Z" fill="#50246B"/>
<path d="M672.935 577.081L697.781 515.647C698.01 515.416 712.579 521.659 720.003 525.354C707.222 544.829 681.063 584.563 678.675 587.704C675.69 591.629 677.756 594.4 677.297 596.479C676.379 596.479 674.313 597.172 662.373 600.404C650.434 603.637 658.011 595.786 663.521 592.553C667.93 589.967 671.634 581.161 672.935 577.081Z" fill="#FFB27D"/>
<path d="M647.325 600.937C641.858 605.605 645.806 606.622 648.464 606.548L679.447 605.874V595.327C680.13 594.056 678.854 592.545 668.284 596.674C657.714 600.803 658.868 596.449 660.766 593.757C658.564 594.205 652.793 596.27 647.325 600.937Z" fill="#50246B"/>
<path d="M696.604 511.239C694.573 515.317 696.681 517.109 697.99 517.495L732.39 537.19C735.083 530.007 725.694 509.385 760.556 514.714C802.483 516.753 808.655 487.45 806.5 472.543C795.726 472.62 773.67 473.192 771.638 474.86C769.099 476.945 737.238 487.372 722.693 488.994C708.148 490.616 699.144 506.141 696.604 511.239Z" fill="url(#paint12_linear_402_2)"/>
<path d="M765.794 477.807C767.838 477.444 767.11 472.371 766.491 469.879L806.667 466.482C806.822 467.388 807.038 470.106 806.667 473.73C801.558 477.58 772.296 478.26 765.794 477.807Z" fill="#8B49B3"/>
<path d="M767.143 471.869C757.106 440.697 759.399 423.736 761.799 419.152C761.799 396.306 783.495 379.654 794.414 377.591L806.872 468.431C799.98 469.271 782.384 471.135 767.143 471.869Z" fill="url(#paint13_linear_402_2)"/>
<path d="M733.827 432.811L709.902 418.874L716.803 407.222L728.306 414.304L746.939 412.705L733.827 432.811Z" fill="url(#paint14_linear_402_2)"/>
<path d="M682.593 394.445C684.064 397.37 691.938 401.758 695.692 403.586C698.817 405.78 707.871 414.556 712.008 418.669L717.983 409.985C716.374 408.919 711.824 406.146 706.492 403.586C699.598 401.529 698.449 398.33 695.002 392.845C691.555 387.36 693.623 392.617 693.164 393.988C692.796 395.085 690.866 393.683 689.946 392.845C688.338 391.093 684.615 387.954 682.593 389.417C680.065 391.245 680.754 390.788 682.593 394.445Z" fill="#FFB27D"/>
<path d="M716.862 407.222C711.117 411.935 709.83 417.042 709.905 419.006L713.72 421.363L720.676 410.05C720.302 409.736 719.016 408.73 716.862 407.222Z" fill="#4586F2"/>
<path d="M668.924 431.231C665.084 433.918 667.324 434.59 668.924 434.59C670.753 434.142 674.639 433.202 675.553 433.022C676.696 432.799 679.896 435.71 681.725 436.605C683.188 437.322 688.735 436.307 691.325 435.71L712.812 436.605L713.269 427.424L692.925 430.335C691.478 430.932 687.759 431.679 684.468 429.887C679.896 425.857 673.724 427.872 668.924 431.231Z" fill="#FFB27D"/>
<path d="M765.613 390.987C764.468 386.68 761.317 380.651 759.885 378.176L766.227 371.306L779.116 384.117L767.045 398.228C767.045 397.609 766.759 395.295 765.613 390.987Z" fill="#FFB27D"/>
<path d="M773.65 387.16C770.957 386.192 767.066 390.148 765.794 392.407C765.869 392.73 767.186 396.31 767.365 397.084C769.161 396.448 774.885 391.397 777.915 389.097C777.616 388.855 776.344 388.129 773.65 387.16Z" fill="white"/>
<path d="M779.262 399.165C775.349 388.208 759.16 398.708 751.41 406.013C745.272 410.882 732.811 420.85 732.075 421.763C731.338 422.677 729.159 423.97 728.162 424.502L715.962 426.329V438.198H740.131L769.825 420.622C779.032 414.915 778.342 410.578 779.262 399.165Z" fill="url(#paint15_linear_402_2)"/>
<path d="M710.615 426.764L709.902 437.513L717.983 438.199V426.078L710.615 426.764Z" fill="#4586F2"/>
<path d="M763.732 386.69C765.527 387.048 767.837 382.293 768.51 380.28L761.809 382.844C762.033 383.441 763.013 385.258 763.732 386.69Z" fill="#E4A579"/>
<path d="M772.716 378.222C754.158 390.981 750.428 378.299 750.883 370.363C750.201 364.046 749.564 350.347 752.475 346.094C756.114 340.778 795.914 362.274 772.716 378.222Z" fill="#FFB27D"/>
<path d="M771.367 381.744C770.626 376.547 772.293 367.206 773.22 363.184C777.776 361.947 788.045 359.612 792.678 360.168C797.311 360.725 801.712 371.691 803.334 377.104C804.106 383.445 805.465 397.288 804.723 401.927C802.87 408.655 804.955 409.583 806.577 414.455C808.198 419.327 808.893 425.359 799.396 427.215C791.798 428.7 790.053 421.956 790.13 418.399V402.623C790.13 396.128 786.655 391.952 780.632 390.328C774.61 388.704 772.293 388.24 771.367 381.744Z" fill="#0F2B53"/>
<path d="M755.707 349.623C751.467 348.345 750.253 356.395 750.176 360.58C748.563 358.754 747.411 351.906 747.641 349.623C747.872 347.341 751.098 342.09 754.324 341.633C756.721 342.912 760.546 341.557 762.159 340.72C765.309 339.579 773.036 337.981 778.751 340.72C785.895 344.144 790.504 352.591 790.043 355.558C789.582 358.526 791.426 358.069 793.269 361.037C794.422 364.233 787.969 368.114 780.825 368.799C773.682 369.483 763.081 361.037 761.698 356.015C760.316 350.993 759.394 349.623 755.707 349.623Z" fill="#163561"/>
<path d="M176.748 319.153C174.92 316.803 174.898 311.428 175.116 309.034C175.66 307.729 175.703 303.094 171.525 294.999C166.302 284.88 136.926 322.744 137.905 327.966C138.688 332.144 136.273 339.064 134.967 342.002L153.572 350.162C154.443 345.266 157.555 336.126 163.038 338.738C168.522 341.349 171.416 337.65 172.178 335.473C172.613 333.297 174.006 328.292 176.095 325.681C180.338 324.049 179.033 322.091 176.748 319.153Z" fill="#F7B39D"/>
<path d="M178.38 298.916C183.603 306.228 177.945 310.014 174.463 310.993C174.355 307.62 173.68 300.483 171.852 298.916C165.977 299.569 164.345 302.507 161.407 305.444C159.057 307.795 158.034 313.387 157.817 315.889C150.962 305.118 148.351 315.889 149.33 318.827C150.309 321.765 143.455 323.07 143.455 325.029C143.455 326.987 141.823 329.599 140.843 329.599C139.864 329.599 139.211 332.536 138.559 334.495C136.6 334.495 134.315 324.702 133.336 323.07C132.553 321.765 131.051 314.475 130.398 310.993C129.093 307.403 128.048 298.72 134.315 292.714C140.582 286.708 151.941 287.383 156.837 288.471C160.754 289.777 170.351 292.257 177.401 291.735C186.214 291.082 181.318 297.284 178.38 298.916Z" fill="#1C1717"/>
<path d="M149.657 329.599C150.44 331.949 158.47 336.236 162.387 338.086C158.731 337.302 156.076 341.458 155.206 343.634C153.465 341.241 149.918 335.083 149.657 329.599Z" fill="#EFA069"/>
<path d="M135.294 341.349L153.9 349.836C151.615 354.079 154.879 359.954 157.49 367.788C161.146 372.749 162.713 392.486 163.039 401.735C162.495 409.568 160.624 426.15 157.49 429.806C153.573 434.376 155.858 449.39 155.858 457.224C155.858 465.058 146.392 461.141 142.475 457.224C138.558 453.307 128.766 451.675 124.849 460.162C120.932 468.648 113.425 463.752 104.612 464.405C97.5614 464.927 101.674 447.432 104.612 438.619C105.156 438.292 106.701 432.417 108.529 411.527C110.618 384.37 117.668 364.742 120.932 358.322C122.891 355.711 127.46 349.901 130.072 347.551C133.205 347.028 134.859 343.199 135.294 341.349Z" fill="#9566FA"/>
<path d="M149.029 421.25L156.863 431.695C157.951 433.871 161.824 437.832 168.613 436.265C175.925 436.265 186.457 435.395 190.809 434.959C195.923 434.524 206.934 433.915 210.067 434.959C213.984 436.265 225.082 436.918 228.346 437.244C231.61 437.571 242.055 432.348 234.221 433.327C233.073 433.327 232.003 433.459 231.164 433.614C237.057 432.15 244.407 429.91 235.527 430.39C232.655 431.173 231.066 431.151 230.631 431.042C237.703 428.649 248.453 424.58 234.874 427.452C231.284 427.452 248.257 422.556 232.589 424.514C220.055 426.081 220.186 422.338 221.818 420.271C224.211 420.053 228.607 419.031 227.04 416.68C225.082 413.743 226.387 418.313 220.512 417.007C215.812 415.962 209.197 420.271 206.477 422.556L170.898 420.271L163.717 410.479L149.029 421.25Z" fill="#F7B39D"/>
<path d="M121.912 397.165C112.446 342.98 149.983 346.245 160.102 392.268C160.865 395.402 167.601 406.413 170.874 411.527C166.413 415.008 155.271 423.538 146.393 429.805C139.342 422.494 127.135 404.998 121.912 397.165Z" fill="#8959EF"/>
<path d="M197.336 582.17L192.114 566.829L204.191 564.218L208.108 582.17H197.336Z" fill="#F7B39D"/>
<path d="M191.789 570.745L169.593 494.692H198.643L207.456 567.808L191.789 570.745Z" fill="#2D4364"/>
<path d="M194.241 589.831C192.029 582.01 194.138 578.836 195.469 578.227C199.581 583.214 205.289 579.081 207.629 576.391C209.716 577.917 215.624 581.057 222.563 581.411C231.16 583.04 230.384 586.745 224.62 589.233C215.788 592.334 206.426 590.063 202.849 588.54L202.916 590.273C201.776 590.378 198.446 590.436 194.241 589.831Z" fill="#142743"/>
<path d="M212.677 580.864L211.371 563.891H224.101L222.143 584.128L212.677 580.864Z" fill="#F7B39D"/>
<path d="M210.487 586.996C208.331 579.16 210.463 576.002 211.798 575.402C215.874 580.419 221.612 576.327 223.971 573.654C226.047 575.195 231.932 578.377 238.869 578.781C247.454 580.472 246.651 584.172 240.869 586.618C232.015 589.655 222.67 587.316 219.104 585.768L219.158 587.501C218.018 587.598 214.688 587.633 210.487 586.996Z" fill="#193052"/>
<path d="M157.516 459.766C131.925 451.671 116.931 447.145 101.373 449.321C91.255 499.048 121.61 503.831 138.91 503.178C156.209 502.526 163.651 503.178 176.448 503.178C188.85 503.178 188.524 500.354 199.622 509.38L209.741 566.828L225.408 567.807C227.693 548.005 230.78 509.297 232.085 500.68C233.717 489.908 232.412 474.567 217.723 473.588C205.972 472.805 165.459 461.616 157.516 459.766Z" fill="#3C5780"/>
<path d="M753.479 436.274H169.993C168.025 436.274 166.431 437.868 166.431 439.836C166.431 441.803 168.025 443.398 169.993 443.398H753.479C755.86 443.398 757.571 441.107 756.894 438.824C756.446 437.311 755.057 436.274 753.479 436.274Z" fill="#A4C0EE"/>
<path d="M183.582 595.904L177.25 594.057L208.912 441.55H217.883L183.582 595.904Z" fill="#A4C0EE"/>
<path d="M276.983 440.231H267.221L301.521 596.431L309.965 593.528L276.983 440.231Z" fill="#A4C0EE"/>
<path d="M634.239 440.495H625.005L592.551 594.32L600.994 596.167L634.239 440.495Z" fill="#A4C0EE"/>
<path d="M717.881 596.167L683.844 441.287H693.079L725.796 594.584L717.881 596.167Z" fill="#A4C0EE"/>
<path d="M367.352 594.601L362.041 570.756L380.008 567.549L382.862 594.226L367.352 594.601Z" fill="#FFB27D"/>
<path d="M418.001 596.296L416.236 567.972L433.131 565.633L435.401 594.737L418.001 596.296Z" fill="#FFB27D"/>
<path d="M415.985 610.53C413.49 608.034 414.946 593.374 415.985 586.356C420.491 585.836 430.801 584.797 436 584.797C436 594.414 447.697 595.454 456.534 599.873C463.604 603.408 464.332 607.584 463.812 609.23C460.26 609.663 451.804 610.53 446.397 610.53C439.639 610.53 438.859 608.19 434.7 606.111C431.373 604.447 431.061 608.364 431.321 610.53H415.985Z" fill="#163561"/>
<path d="M431.322 608.192L415.206 607.672L415.726 610.791H431.322V608.192Z" fill="#0A1F3D"/>
<path d="M366.012 610.696C363.266 608.48 363.153 593.749 363.44 586.66C367.865 585.663 378.006 583.533 383.175 582.979C384.199 592.542 395.94 592.331 405.197 595.785C412.603 598.547 413.772 602.623 413.43 604.315C409.944 605.123 401.627 606.885 396.252 607.46C389.532 608.179 388.508 605.936 384.151 604.311C380.666 603.011 380.772 606.938 381.261 609.064L366.012 610.696Z" fill="#163561"/>
<path d="M380.884 605.875L364.84 607.475L365.765 610.499L381.225 608.452L380.884 605.875Z" fill="#0A1F3D"/>
<path d="M413.891 483.796C403.941 457.262 351.702 462.172 326.827 467.944C324.551 473.228 320.096 486.674 320.486 498.185C320.974 512.574 386.333 498.673 392.674 509.647C397.746 518.427 408.932 555.252 413.891 572.567H436.084C437.303 552.326 428.036 516.476 428.036 513.793C428.036 511.11 422.915 497.697 413.891 483.796Z" fill="url(#paint16_linear_402_2)"/>
<path d="M393.652 422.583C389.359 420.828 381.133 424.778 377.556 426.973C378.694 429.331 381.165 434.143 381.945 434.534C382.921 435.021 385.116 437.216 386.823 436.241C388.53 435.265 391.457 434.046 394.383 434.534C397.31 435.021 398.529 434.046 400.236 432.095C401.943 430.144 401.7 432.339 403.894 434.046C406.089 435.753 409.991 436.729 407.796 430.144C405.602 423.559 399.017 424.778 393.652 422.583Z" fill="#FFB27D"/>
<path d="M337.801 510.866C300.731 499.55 275.53 482.089 265.613 474.528C265.613 439.215 322.355 473.309 350.726 494.77C355.685 498.916 366.871 509.5 371.943 518.67C377.016 527.84 381.698 558.91 383.406 573.299H359.506L353.653 553.057C350.076 540.131 341.898 513.598 337.801 510.866Z" fill="url(#paint17_linear_402_2)"/>
<path d="M280.005 381.856C282.736 376.198 282.769 367.467 282.444 363.809C276.835 316.496 307.563 319.179 315.367 327.715C323.171 336.25 317.806 351.127 317.806 360.15C317.806 369.174 309.514 366.491 306.1 366.491C303.905 378.685 309.514 384.05 310.002 386.977C303.564 395.561 286.021 390.554 278.054 386.977C277.566 387.627 277.274 387.513 280.005 381.856Z" fill="#FFB27D"/>
<path d="M257.81 389.904C238.885 409.024 255.127 454.938 265.614 475.505C300.732 488.186 335.851 475.505 340.973 467.213C346.094 458.921 344.631 413.804 338.046 398.439C331.461 383.075 321.219 381.856 308.781 381.856C294.148 394.342 282.849 387.058 279.028 381.856C276.914 382.425 269.712 384.831 257.81 389.904Z" fill="url(#paint18_linear_402_2)"/>
<path d="M271.224 358.199C289.758 379.074 299.757 362.344 302.44 351.37C291.709 337.908 300.733 334.299 305.61 338.932H307.074L307.561 330.64C318.292 329.909 319.024 328.446 320.243 319.666C321.606 309.848 311.545 305.358 306.098 304.302C301.627 303.733 289.905 303.716 278.784 308.204C258.054 320.641 260.981 338.201 271.224 358.199Z" fill="#163561"/>
<path d="M326.584 429.654L317.56 407.949C313.252 395.999 310.634 375.855 334.632 390.878C344.664 414.288 347.58 421.525 347.915 422.643C351.544 424.522 359.397 424.03 371.945 422.582C376.335 424.533 378.286 425.752 379.749 425.752L383.651 435.751C372.839 439.816 348.923 448.286 339.753 449.652C333.51 444.775 328.372 434.288 326.584 429.654Z" fill="url(#paint19_linear_402_2)"/>
<path d="M255.501 603.663L267.367 539.715L263.745 537.467L250.755 603.663H255.501Z" fill="url(#paint20_linear_402_2)"/>
<path d="M295.844 604.788L285.853 551.706L290.474 553.455L300.84 604.788H295.844Z" fill="url(#paint21_linear_402_2)"/>
<path d="M310.883 606.679L319.626 562.216H323.873L315.38 606.679H310.883Z" fill="url(#paint22_linear_402_2)"/>
<path d="M356.689 607.261L345.324 550.933H341.202L352.568 607.261H356.689Z" fill="url(#paint23_linear_402_2)"/>
<path d="M260.253 487.796C267.943 438.502 287.832 423.994 299.248 423.164C349.898 414.03 357.186 457.105 362.078 464.994C366.971 472.882 365.099 477.603 372.92 515.451C379.989 549.661 378.749 533.069 376.734 553.05C234.223 605.969 254.466 524.886 260.253 487.796Z" fill="url(#paint24_linear_402_2)"/>
<path d="M666.698 63.1729C668.074 63.5582 671.321 64.8941 673.308 67.1553C675.792 69.9819 679.827 63.7035 679.639 62.7307C679.45 61.7578 683.487 60.0318 685.495 62.8217C687.502 65.6116 691.502 66.8777 693.657 62.2516C695.812 57.6255 697.669 58.7267 699.726 60.5621C701.783 62.3974 702.836 62.8378 704.278 62.7092" stroke="#FF7C0D" stroke-width="4.75524"/>
<path d="M670.653 240.33L702.834 230.064L695.634 263.066L670.653 240.33Z" fill="url(#paint25_linear_402_2)"/>
<rect x="302.981" y="66.4375" width="380.468" height="183.989" rx="10" fill="white"/>
<circle cx="369.293" cy="144.261" r="44.6762" fill="#D1E4FF"/>
<path d="M413.969 144.261C413.969 153.688 410.988 162.872 405.451 170.502C399.915 178.131 392.107 183.813 383.145 186.736C374.184 189.659 364.527 189.672 355.557 186.774C346.588 183.876 338.764 178.215 333.207 170.601C327.65 162.987 324.643 153.811 324.617 144.384C324.591 134.958 327.547 125.765 333.062 118.121C338.578 110.477 346.37 104.773 355.323 101.825C364.277 98.8779 373.934 98.838 382.911 101.711L369.293 144.261H413.969Z" fill="#00FF57"/>
<path d="M413.969 144.261C413.969 153.688 410.988 162.872 405.451 170.502C399.915 178.131 392.107 183.813 383.145 186.736C374.184 189.659 364.527 189.672 355.557 186.774C346.588 183.876 338.764 178.215 333.207 170.601C327.65 162.987 324.643 153.811 324.617 144.384C324.591 134.958 327.547 125.765 333.062 118.121C338.578 110.477 346.37 104.773 355.323 101.825C364.277 98.8779 373.934 98.838 382.911 101.711L369.293 144.261H413.969Z" fill="#81C2FF"/>
<path d="M413.969 144.261C413.969 152.506 411.688 160.59 407.377 167.618L369.293 144.261H413.969Z" fill="#BAAFFB"/>
<path d="M413.969 144.261C413.969 148.5 413.366 152.716 412.178 156.785L369.293 144.261H413.969Z" fill="#7F91F0"/>
<rect x="324.617" y="200.467" width="111.45" height="2.88234" fill="#DEEAFF"/>
<rect x="324.617" y="209.693" width="97.0386" height="2.88234" fill="#DEEAFF"/>
<rect x="324.617" y="217.846" width="82.627" height="2.88234" fill="#DEEAFF"/>
<g filter="url(#filter0_f_402_2)">
<path d="M463.922 224.159C463.922 224.159 469.242 172.197 494.186 164.831C517.242 158.022 509.197 208.116 531.417 198.938C555.179 189.123 544.913 123.916 568.887 114.63C589.028 106.828 618.23 165.223 638.784 158.586C658.419 152.245 657.519 103.581 657.519 103.581" stroke="#1E6AD6" stroke-opacity="0.12"/>
<path d="M485.299 223.679C485.299 223.679 490.619 171.717 515.564 164.351C538.619 157.542 548.83 200.19 571.049 191.012C594.812 181.197 563.888 136.647 587.862 127.361C608.003 119.559 618.71 154.414 639.264 147.777C658.899 141.436 669.288 104.302 669.288 104.302" stroke="#FF7C0D" stroke-opacity="0.12"/>
</g>
<path d="M459.845 218.723C459.845 218.723 465.165 166.762 490.11 159.395C513.165 152.586 505.121 202.68 527.34 193.503C551.103 183.688 540.836 118.481 564.81 109.195C584.951 101.393 614.153 159.788 634.707 153.15C654.342 146.81 653.442 98.1458 653.442 98.1458" stroke="#1E6AD6"/>
<path d="M481.223 218.243C481.223 218.243 486.543 166.282 511.487 158.915C534.543 152.106 544.753 194.754 566.972 185.577C590.735 175.762 559.811 131.212 583.786 121.925C603.927 114.124 614.633 148.979 635.187 142.342C654.822 136.001 665.212 98.8667 665.212 98.8667" stroke="#FF7C0D"/>
<path d="M256.209 158.398L264.096 138.681L277.227 155.37L256.209 158.398Z" fill="#0176FF"/>
<path d="M433.43 46.52L431.438 34.0756L443.211 38.573L433.43 46.52Z" fill="url(#paint26_linear_402_2)"/>
<path d="M566.592 223.281C567.556 224.744 569.484 228.591 569.484 232.27C569.484 236.869 578.368 234.361 578.988 233.315C579.608 232.27 584.773 233.943 584.36 238.124C583.946 242.305 586.632 246.695 592.417 244.186C598.202 241.677 599.029 244.186 599.442 247.531C599.855 250.876 600.475 252.13 601.921 253.175" stroke="#0199FF" stroke-width="4.75524"/>
<path fill-rule="evenodd" clip-rule="evenodd" d="M188.267 76.6691C184.806 79.4154 184.226 84.4475 186.973 87.9085L195.918 99.1817C198.664 102.643 203.696 103.222 207.157 100.476L218.294 91.639L224.549 94.1116L223.563 87.4582L234.5 78.7795C237.961 76.0331 238.541 71.0011 235.794 67.54L226.849 56.2668C224.103 52.8058 219.071 52.2264 215.61 54.9727L188.267 76.6691Z" fill="url(#paint27_linear_402_2)"/>
<path fill-rule="evenodd" clip-rule="evenodd" d="M638.443 52.9538C647.795 52.1343 655.068 45.8543 655.068 38.2288C655.068 30.0464 646.694 23.4132 636.363 23.4132C626.033 23.4132 617.659 30.0464 617.659 38.2288C617.659 45.5325 624.331 51.6018 633.111 52.8211L635.815 57.5056L638.443 52.9538Z" fill="url(#paint28_linear_402_2)"/>
<path fill-rule="evenodd" clip-rule="evenodd" d="M289.549 269.148C291.34 259.933 287.309 251.21 279.979 249.108C272.114 246.852 263.429 253.072 260.58 263.002C257.732 272.932 261.799 282.811 269.664 285.067C276.685 287.081 284.358 282.341 287.951 274.238L293.2 272.929L289.549 269.148Z" fill="#FF7C0D"/>
<defs>
<filter id="filter0_f_402_2" x="458.424" y="98.5724" width="216.345" height="130.637" filterUnits="userSpaceOnUse" color-interpolation-filters="sRGB">
<feFlood flood-opacity="0" result="BackgroundImageFix"/>
<feBlend mode="normal" in="SourceGraphic" in2="BackgroundImageFix" result="shape"/>
<feGaussianBlur stdDeviation="2.5" result="effect1_foregroundBlur_402_2"/>
</filter>
<linearGradient id="paint0_linear_402_2" x1="843.119" y1="585.013" x2="840.959" y2="525.708" gradientUnits="userSpaceOnUse">
<stop offset="0.550331" stop-color="#7C8DB7"/>
<stop offset="1" stop-color="#A1ACBB"/>
</linearGradient>
<linearGradient id="paint1_linear_402_2" x1="813.572" y1="585.661" x2="812.032" y2="538.092" gradientUnits="userSpaceOnUse">
<stop offset="0.550331" stop-color="#7C8DB7"/>
<stop offset="1" stop-color="#A1ACBB"/>
</linearGradient>
<linearGradient id="paint2_linear_402_2" x1="774.145" y1="584.52" x2="772.898" y2="544.671" gradientUnits="userSpaceOnUse">
<stop offset="0.550331" stop-color="#7C8DB7"/>
<stop offset="1" stop-color="#A1ACBB"/>
</linearGradient>
<linearGradient id="paint3_linear_402_2" x1="733.903" y1="570.695" x2="732.225" y2="520.219" gradientUnits="userSpaceOnUse">
<stop offset="0.550331" stop-color="#7C8DB7"/>
<stop offset="1" stop-color="#A1ACBB"/>
</linearGradient>
<linearGradient id="paint4_linear_402_2" x1="783.923" y1="421.703" x2="783.923" y2="550.977" gradientUnits="userSpaceOnUse">
<stop stop-color="#F7CD7E"/>
<stop offset="1" stop-color="#EEBA59"/>
</linearGradient>
<linearGradient id="paint5_linear_402_2" x1="773.743" y1="421.614" x2="773.743" y2="543.196" gradientUnits="userSpaceOnUse">
<stop stop-color="#FBE0B3"/>
<stop offset="1" stop-color="#FFCB6A"/>
</linearGradient>
<linearGradient id="paint6_linear_402_2" x1="52.0415" y1="570.992" x2="54.2543" y2="510.251" gradientUnits="userSpaceOnUse">
<stop offset="0.550331" stop-color="#7C8DB7"/>
<stop offset="1" stop-color="#A1ACBB"/>
</linearGradient>
<linearGradient id="paint7_linear_402_2" x1="82.304" y1="571.655" x2="83.8815" y2="522.934" gradientUnits="userSpaceOnUse">
<stop offset="0.550331" stop-color="#7C8DB7"/>
<stop offset="1" stop-color="#A1ACBB"/>
</linearGradient>
<linearGradient id="paint8_linear_402_2" x1="122.685" y1="570.485" x2="123.962" y2="529.672" gradientUnits="userSpaceOnUse">
<stop offset="0.550331" stop-color="#7C8DB7"/>
<stop offset="1" stop-color="#A1ACBB"/>
</linearGradient>
<linearGradient id="paint9_linear_402_2" x1="163.901" y1="556.327" x2="165.62" y2="504.629" gradientUnits="userSpaceOnUse">
<stop offset="0.550331" stop-color="#7C8DB7"/>
<stop offset="1" stop-color="#A1ACBB"/>
</linearGradient>
<linearGradient id="paint10_linear_402_2" x1="112.674" y1="403.729" x2="112.674" y2="536.132" gradientUnits="userSpaceOnUse">
<stop stop-color="#F7CD7E"/>
<stop offset="1" stop-color="#EEBA59"/>
</linearGradient>
<linearGradient id="paint11_linear_402_2" x1="123.101" y1="403.638" x2="123.101" y2="528.163" gradientUnits="userSpaceOnUse">
<stop stop-color="#FBE0B3"/>
<stop offset="1" stop-color="#FFCB6A"/>
</linearGradient>
<linearGradient id="paint12_linear_402_2" x1="751.316" y1="472.543" x2="751.316" y2="537.19" gradientUnits="userSpaceOnUse">
<stop stop-color="#3D8F7D"/>
<stop offset="1" stop-color="#44B09D"/>
</linearGradient>
<linearGradient id="paint13_linear_402_2" x1="783.303" y1="377.591" x2="783.303" y2="471.869" gradientUnits="userSpaceOnUse">
<stop stop-color="#00A3FE"/>
<stop offset="1" stop-color="#0047FE"/>
</linearGradient>
<linearGradient id="paint14_linear_402_2" x1="751.73" y1="395.203" x2="712.009" y2="437.583" gradientUnits="userSpaceOnUse">
<stop stop-color="#0045B7"/>
<stop offset="1" stop-color="#0750C9"/>
<stop offset="1" stop-color="#00348A"/>
</linearGradient>
<linearGradient id="paint15_linear_402_2" x1="787.45" y1="373.869" x2="719.503" y2="446.304" gradientUnits="userSpaceOnUse">
<stop stop-color="#3E86FC"/>
<stop offset="1" stop-color="#0750C9"/>
<stop offset="1" stop-color="#00348A"/>
</linearGradient>
<linearGradient id="paint16_linear_402_2" x1="378.328" y1="463.387" x2="378.328" y2="572.567" gradientUnits="userSpaceOnUse">
<stop stop-color="#3D8F7D"/>
<stop offset="1" stop-color="#44B09D"/>
</linearGradient>
<linearGradient id="paint17_linear_402_2" x1="324.509" y1="459.253" x2="324.509" y2="573.299" gradientUnits="userSpaceOnUse">
<stop stop-color="#3D8F7D"/>
<stop offset="1" stop-color="#44B09D"/>
</linearGradient>
<linearGradient id="paint18_linear_402_2" x1="296.572" y1="381.856" x2="296.572" y2="480.874" gradientUnits="userSpaceOnUse">
<stop stop-color="#00A3FE"/>
<stop offset="1" stop-color="#0047FE"/>
</linearGradient>
<linearGradient id="paint19_linear_402_2" x1="336.177" y1="389.896" x2="363.1" y2="445.023" gradientUnits="userSpaceOnUse">
<stop stop-color="#4FC0FF"/>
<stop offset="1" stop-color="#0047FE"/>
</linearGradient>
<linearGradient id="paint20_linear_402_2" x1="250.698" y1="605.446" x2="253.265" y2="534.989" gradientUnits="userSpaceOnUse">
<stop offset="0.550331" stop-color="#7C8DB7"/>
<stop offset="1" stop-color="#A1ACBB"/>
</linearGradient>
<linearGradient id="paint21_linear_402_2" x1="285.801" y1="606.218" x2="287.631" y2="549.703" gradientUnits="userSpaceOnUse">
<stop offset="0.550331" stop-color="#7C8DB7"/>
<stop offset="1" stop-color="#A1ACBB"/>
</linearGradient>
<linearGradient id="paint22_linear_402_2" x1="310.838" y1="607.877" x2="312.32" y2="560.534" gradientUnits="userSpaceOnUse">
<stop offset="0.550331" stop-color="#7C8DB7"/>
<stop offset="1" stop-color="#A1ACBB"/>
</linearGradient>
<linearGradient id="paint23_linear_402_2" x1="341.148" y1="608.779" x2="343.142" y2="548.81" gradientUnits="userSpaceOnUse">
<stop offset="0.550331" stop-color="#7C8DB7"/>
<stop offset="1" stop-color="#A1ACBB"/>
</linearGradient>
<linearGradient id="paint24_linear_402_2" x1="332.02" y1="421.939" x2="332.02" y2="566.549" gradientUnits="userSpaceOnUse">
<stop stop-color="#F7CD7E"/>
<stop offset="1" stop-color="#EEBA59"/>
</linearGradient>
<linearGradient id="paint25_linear_402_2" x1="670.653" y1="240.33" x2="708.761" y2="248.643" gradientUnits="userSpaceOnUse">
<stop stop-color="#00A3FE"/>
<stop offset="1" stop-color="#0047FE"/>
</linearGradient>
<linearGradient id="paint26_linear_402_2" x1="433.43" y1="46.52" x2="438.623" y2="32.9257" gradientUnits="userSpaceOnUse">
<stop stop-color="#00A3FE"/>
<stop offset="1" stop-color="#0047FE"/>
</linearGradient>
<linearGradient id="paint27_linear_402_2" x1="201.938" y1="65.8209" x2="224.449" y2="94.1906" gradientUnits="userSpaceOnUse">
<stop stop-color="#7FD1FF"/>
<stop offset="1" stop-color="#83A6FF"/>
</linearGradient>
<linearGradient id="paint28_linear_402_2" x1="636.363" y1="23.4132" x2="636.363" y2="57.5057" gradientUnits="userSpaceOnUse">
<stop stop-color="#7FD1FF"/>
<stop offset="1" stop-color="#83A6FF"/>
</linearGradient>
</defs>
</svg>
