<svg width="2396" height="2087" viewBox="0 0 2396 2087" fill="none" xmlns="http://www.w3.org/2000/svg">
<rect width="2396" height="2087" fill="#F5F5F5"/>
<rect width="2396" height="2087" fill="white"/>
<g opacity="0.8" filter="url(#filter0_f_0_1)">
<path d="M1221.9 909.938C1247.6 787.382 854.884 476.302 645.928 382.19C436.972 288.078 617.563 611.792 591.867 734.348C566.17 856.904 588.068 867.329 797.024 961.441C1005.98 1055.55 1196.2 1032.49 1221.9 909.938Z" fill="#FF9F00"/>
<path d="M1837.98 1487.51C1865.92 1354.22 1511.67 1048.71 1320.79 962.746C1129.91 876.777 1286.8 1211.03 1258.85 1344.32C1230.9 1477.61 1250.89 1487.22 1441.76 1573.19C1632.64 1659.16 1810.03 1620.8 1837.98 1487.51Z" fill="#FF9F00"/>
<ellipse cx="1417.2" cy="899.529" rx="199.95" ry="380.18" transform="rotate(36.312 1417.2 899.529)" fill="#9C51B6"/>
<ellipse cx="944.734" cy="1136.47" rx="224.48" ry="243.477" transform="rotate(0.865725 944.734 1136.47)" fill="#9C51B6"/>
</g>
<defs>
<filter id="filter0_f_0_1" x="-1124.53" y="-19.7266" width="4771.76" height="6924" filterUnits="userSpaceOnUse" color-interpolation-filters="sRGB">
<feFlood flood-opacity="0" result="BackgroundImageFix"/>
<feBlend mode="normal" in="SourceGraphic" in2="BackgroundImageFix" result="shape"/>
<feGaussianBlur stdDeviation="192.5" result="effect1_foregroundBlur_0_1"/>
</filter>
</defs>
</svg>
