<svg width="71" height="71" viewBox="0 0 71 71" fill="none" xmlns="http://www.w3.org/2000/svg">
<rect x="0.508301" y="0.508789" width="70.4746" height="70.4746" rx="35.2373" fill="white"/>
<path d="M57.7691 36.2844C57.7691 34.7673 57.6223 33.2011 57.3776 31.7329H36.186V40.3955H48.3235C47.834 43.1852 46.219 45.6322 43.8209 47.1983L51.0642 52.8266C55.3221 48.8623 57.7691 43.0873 57.7691 36.2844Z" fill="#4280EF"/>
<path d="M36.186 58.2101C42.2547 58.2101 47.3446 56.2035 51.0641 52.7776L43.8208 47.1983C41.8143 48.5686 39.2204 49.3517 36.186 49.3517C30.3131 49.3517 25.37 45.3875 23.5592 40.1018L16.1201 45.8279C19.9375 53.4138 27.6702 58.2101 36.186 58.2101Z" fill="#34A353"/>
<path d="M23.5588 40.053C22.629 37.2634 22.629 34.229 23.5588 31.4394L16.1198 25.6643C12.9386 32.0267 12.9386 39.5147 16.1198 45.8281L23.5588 40.053Z" fill="#F6B704"/>
<path d="M36.186 22.1894C39.3672 22.1405 42.4994 23.364 44.7997 25.5663L51.211 19.1061C47.1488 15.2887 41.7653 13.2332 36.186 13.2821C27.6702 13.2821 19.9375 18.0783 16.1201 25.6642L23.5592 31.4393C25.37 26.1047 30.3131 22.1894 36.186 22.1894Z" fill="#E54335"/>
</svg>
