<svg width="71" height="71" viewBox="0 0 71 71" fill="none" xmlns="http://www.w3.org/2000/svg">
<rect y="0.508789" width="70.4746" height="70.4746" rx="35.2373" fill="url(#paint0_linear_355_2329)"/>
<path d="M35.2373 16.0273C41.6575 16.0273 42.4186 16.0484 44.9557 16.1683C47.3025 16.274 48.5781 16.6686 49.4238 16.9999C50.5443 17.4368 51.3478 17.9583 52.1864 18.797C53.0251 19.6356 53.5466 20.439 53.9835 21.5596C54.3147 22.4053 54.7023 23.6808 54.8151 26.0276C54.9279 28.5647 54.9561 29.3259 54.9561 35.7461C54.9561 42.1663 54.9349 42.9274 54.8151 45.4645C54.7094 47.8113 54.3147 49.0869 53.9835 49.9326C53.5466 51.0532 53.0251 51.8566 52.1864 52.6952C51.3478 53.5339 50.5443 54.0554 49.4238 54.4923C48.5781 54.8236 47.3025 55.2112 44.9557 55.3239C42.4186 55.4367 41.6575 55.4649 35.2373 55.4649C28.817 55.4649 28.0559 55.4437 25.5188 55.3239C23.172 55.2182 21.8964 54.8236 21.0507 54.4923C19.9302 54.0554 19.1268 53.5339 18.2881 52.6952C17.4495 51.8566 16.928 51.0532 16.491 49.9326C16.1598 49.0869 15.7722 47.8113 15.6594 45.4645C15.5467 42.9274 15.5185 42.1663 15.5185 35.7461C15.5185 29.3259 15.5396 28.5647 15.6594 26.0276C15.7651 23.6808 16.1598 22.4053 16.491 21.5596C16.928 20.439 17.4495 19.6356 18.2881 18.797C19.1268 17.9583 19.9302 17.4368 21.0507 16.9999C21.8964 16.6686 23.172 16.281 25.5188 16.1683C28.0559 16.0484 28.817 16.0273 35.2373 16.0273ZM35.2373 11.6931C28.7043 11.6931 27.8868 11.7213 25.3215 11.8411C22.7633 11.9609 21.0155 12.3626 19.4792 12.9617C17.9005 13.5677 16.5545 14.3923 15.2225 15.7313C13.8835 17.0703 13.066 18.4093 12.4458 19.995C11.8538 21.5243 11.445 23.2721 11.3252 25.8374C11.2054 28.4026 11.1772 29.2201 11.1772 35.7531C11.1772 42.2861 11.2054 43.1036 11.3252 45.6689C11.445 48.2271 11.8468 49.9749 12.4458 51.5113C13.0589 53.0828 13.8835 54.4289 15.2225 55.7609C16.5615 57.0999 17.9005 57.9174 19.4862 58.5376C21.0155 59.1296 22.7633 59.5383 25.3285 59.6581C27.8938 59.7779 28.7113 59.8061 35.2443 59.8061C41.7773 59.8061 42.5948 59.7779 45.1601 59.6581C47.7183 59.5383 49.4661 59.1366 51.0024 58.5376C52.574 57.9244 53.9201 57.0999 55.2521 55.7609C56.5911 54.4219 57.4086 53.0828 58.0288 51.4972C58.6207 49.9679 59.0295 48.2201 59.1493 45.6548C59.2691 43.0895 59.2973 42.272 59.2973 35.739C59.2973 29.206 59.2691 28.3885 59.1493 25.8233C59.0295 23.265 58.6278 21.5173 58.0288 19.9809C57.4156 18.4093 56.5911 17.0633 55.2521 15.7313C53.913 14.3923 52.574 13.5748 50.9883 12.9546C49.459 12.3626 47.7113 11.9539 45.146 11.8341C42.5878 11.7213 41.7703 11.6931 35.2373 11.6931Z" fill="white"/>
<path d="M35.237 23.3918C28.4151 23.3918 22.8828 28.9241 22.8828 35.746C22.8828 42.568 28.4151 48.1002 35.237 48.1002C42.0589 48.1002 47.5912 42.568 47.5912 35.746C47.5912 28.9241 42.0589 23.3918 35.237 23.3918ZM35.237 43.766C30.8112 43.766 27.217 40.1789 27.217 35.746C27.217 31.3132 30.8112 27.726 35.237 27.726C39.6628 27.726 43.257 31.3132 43.257 35.746C43.257 40.1789 39.6628 43.766 35.237 43.766Z" fill="white"/>
<path d="M48.0779 25.795C49.6737 25.795 50.9674 24.5014 50.9674 22.9056C50.9674 21.3098 49.6737 20.0161 48.0779 20.0161C46.4821 20.0161 45.1885 21.3098 45.1885 22.9056C45.1885 24.5014 46.4821 25.795 48.0779 25.795Z" fill="white"/>
<defs>
<linearGradient id="paint0_linear_355_2329" x1="10.3208" y1="60.6626" x2="60.1538" y2="10.8295" gradientUnits="userSpaceOnUse">
<stop stop-color="#FFD521"/>
<stop offset="0.0551048" stop-color="#FFD020"/>
<stop offset="0.1241" stop-color="#FEC01E"/>
<stop offset="0.2004" stop-color="#FCA71B"/>
<stop offset="0.2821" stop-color="#FA8316"/>
<stop offset="0.3681" stop-color="#F85510"/>
<stop offset="0.4563" stop-color="#F51E09"/>
<stop offset="0.5" stop-color="#F30005"/>
<stop offset="0.5035" stop-color="#F20007"/>
<stop offset="0.5966" stop-color="#E1003B"/>
<stop offset="0.6879" stop-color="#D30067"/>
<stop offset="0.7757" stop-color="#C70088"/>
<stop offset="0.8589" stop-color="#BF00A0"/>
<stop offset="0.9357" stop-color="#BB00AF"/>
<stop offset="1" stop-color="#B900B4"/>
</linearGradient>
</defs>
</svg>
