<svg width="20" height="697" viewBox="0 0 20 697" fill="none" xmlns="http://www.w3.org/2000/svg">
<path d="M10 13.9996L10 686.5" stroke="white" stroke-opacity="0.61" stroke-width="3" stroke-dasharray="5 5"/>
<circle cx="10" cy="9.99963" r="7" fill="#575E89"/>
<circle cx="10" cy="9.99963" r="8.5" stroke="white" stroke-opacity="0.33" stroke-width="3"/>
<circle cx="10" cy="103" r="7" fill="#575E89"/>
<circle cx="10" cy="103" r="8.5" stroke="white" stroke-opacity="0.33" stroke-width="3"/>
<circle cx="10" cy="233" r="7" fill="#575E89"/>
<circle cx="10" cy="233" r="8.5" stroke="white" stroke-opacity="0.33" stroke-width="3"/>
<circle cx="10" cy="345" r="7" fill="#575E89"/>
<circle cx="10" cy="345" r="8.5" stroke="white" stroke-opacity="0.33" stroke-width="3"/>
<path d="M17 540C17 543.866 13.866 547 10 547C6.13401 547 3 543.866 3 540C3 536.134 6.13401 533 10 533C13.866 533 17 536.134 17 540Z" fill="#575E89"/>
<path d="M17 687C17 690.866 13.866 694 10 694C6.13401 694 3 690.866 3 687C3 683.134 6.13401 680 10 680C13.866 680 17 683.134 17 687Z" fill="#575E89"/>
<path d="M10 548.5C14.6944 548.5 18.5 544.694 18.5 540C18.5 535.305 14.6944 531.5 10 531.5C5.30558 531.5 1.5 535.305 1.5 540C1.5 544.694 5.30558 548.5 10 548.5ZM10 695.5C14.6944 695.5 18.5 691.694 18.5 687C18.5 682.305 14.6944 678.5 10 678.5C5.30558 678.5 1.5 682.305 1.5 687C1.5 691.694 5.30558 695.5 10 695.5Z" stroke="white" stroke-opacity="0.33" stroke-width="3"/>
</svg>
