<svg width="263" height="76" viewBox="0 0 263 76" fill="none" xmlns="http://www.w3.org/2000/svg">
<path d="M57.4227 25.6554C53.9009 25.6554 50.7245 27.1659 48.5014 29.5744L52.4803 35.5956C53.3366 33.714 55.2298 32.4034 57.4227 32.4034C60.4193 32.4034 62.8572 34.8482 62.8572 37.8536C62.8572 40.8591 60.4193 43.3037 57.4227 43.3037C55.3968 43.3037 53.7211 42.1297 52.6938 40.5333C47.4601 32.4034 48.2492 33.5466 46.5556 30.8941C46.1444 30.2492 45.6498 29.5809 45.5255 29.4498C43.3091 27.114 40.1822 25.6554 36.7209 25.6554C30.0148 25.6554 24.5586 31.1277 24.5586 37.8536C24.5586 44.5795 30.0148 50.0519 36.7209 50.0519C40.2611 50.0519 43.4518 48.5272 45.6757 46.0979L41.7244 39.9807C40.8963 41.9322 38.9658 43.3037 36.7209 43.3037C33.7243 43.3037 31.2867 40.8591 31.2867 37.8536C31.2867 34.8482 33.7243 32.4034 36.7209 32.4034C38.7199 32.4034 40.4149 33.5259 41.4139 35.1103C45.5191 41.6171 45.9009 42.1218 47.6773 44.8883C48.1356 45.6008 48.8756 46.5286 49.1175 46.7558C51.2924 48.7983 54.2141 50.0519 57.4227 50.0519C64.1288 50.0519 69.5852 44.5795 69.5852 37.8536C69.5852 31.1277 64.1288 25.6554 57.4227 25.6554Z" fill="#FEFEFF"/>
<path d="M81.0659 50.916V27.1149H85.4401V50.916H81.0659ZM89.6951 50.916V33.5364H93.6509V36.9548L93.3293 36.3478C93.7365 35.3042 94.4012 34.5162 95.3233 33.9837C96.2669 33.4299 97.3604 33.1531 98.6036 33.1531C99.8903 33.1531 101.027 33.4299 102.013 33.9837C103.021 34.5375 103.803 35.3149 104.361 36.3159C104.918 37.2956 105.197 38.4351 105.197 39.7341V50.916H100.984V40.7245C100.984 39.9578 100.834 39.2977 100.533 38.7439C100.233 38.1902 99.8154 37.7642 99.2791 37.466C98.7646 37.1465 98.1537 36.9868 97.446 36.9868C96.7598 36.9868 96.149 37.1465 95.6126 37.466C95.0766 37.7642 94.6586 38.1902 94.3586 38.7439C94.0581 39.2977 93.9083 39.9578 93.9083 40.7245V50.916H89.6951ZM110.786 50.916V37.2743H107.698V33.5364H110.786V32.9614C110.786 31.6408 111.054 30.5227 111.59 29.6069C112.147 28.6697 112.919 27.9562 113.905 27.4664C114.892 26.9765 116.06 26.7316 117.411 26.7316C117.668 26.7316 117.947 26.7529 118.247 26.7955C118.569 26.8168 118.837 26.8487 119.051 26.8913V30.5014C118.837 30.4588 118.633 30.4375 118.44 30.4375C118.269 30.4162 118.108 30.4055 117.958 30.4055C117.014 30.4055 116.286 30.6185 115.771 31.0445C115.256 31.4492 114.999 32.0881 114.999 32.9614V33.5364H122.653V37.2743H114.999V50.916H110.786ZM121.078 50.916V33.5364H125.323V50.916H121.078ZM128.83 50.916V33.5364H132.785V36.9548L132.464 36.3478C132.871 35.3042 133.536 34.5162 134.458 33.9837C135.401 33.4299 136.495 33.1531 137.738 33.1531C139.025 33.1531 140.161 33.4299 141.147 33.9837C142.155 34.5375 142.938 35.3149 143.495 36.3159C144.053 37.2956 144.331 38.4351 144.331 39.7341V50.916H140.118V40.7245C140.118 39.9578 139.968 39.2977 139.668 38.7439C139.368 38.1902 138.95 37.7642 138.413 37.466C137.899 37.1465 137.288 36.9868 136.58 36.9868C135.894 36.9868 135.283 37.1465 134.747 37.466C134.211 37.7642 133.793 38.1902 133.493 38.7439C133.193 39.2977 133.043 39.9578 133.043 40.7245V50.916H128.83ZM147.894 50.916V33.5364H152.107V50.916H147.894ZM147.894 31.5876V27.1149H152.107V31.5876H147.894ZM154.421 50.916L160.532 42.1942L154.389 33.5364H159.342L164.134 40.565H161.915L166.707 33.5364H171.628L165.517 42.1942L171.596 50.916H166.675L161.947 43.9193H164.102L159.374 50.916H154.421Z" fill="#FEFEFF"/>
<path d="M181.161 25.6553V50.0519V25.6553Z" fill="#FEFEFF"/>
<path d="M181.161 25.6553V50.0519" stroke="#FEFEFF" stroke-width="1.17397"/>
<path d="M194.291 36.4096C193.738 36.4096 193.231 36.3089 192.77 36.1075C192.311 35.8984 191.921 35.6157 191.601 35.2595C191.281 34.9032 191.051 34.5043 190.911 34.0629L191.905 33.6563C192.116 34.2139 192.427 34.6437 192.841 34.9458C193.262 35.2401 193.753 35.3873 194.314 35.3873C194.657 35.3873 194.958 35.333 195.215 35.2246C195.472 35.1162 195.671 34.9652 195.811 34.7716C195.96 34.5702 196.034 34.3378 196.034 34.0745C196.034 33.7105 195.928 33.4239 195.718 33.2148C195.515 32.9979 195.215 32.8353 194.817 32.7269L193.215 32.2389C192.584 32.0453 192.1 31.7394 191.765 31.3212C191.43 30.903 191.262 30.4228 191.262 29.8806C191.262 29.4082 191.375 28.9938 191.601 28.6376C191.835 28.2736 192.155 27.9909 192.56 27.7895C192.973 27.5804 193.441 27.4758 193.964 27.4758C194.486 27.4758 194.958 27.5688 195.379 27.7547C195.807 27.9405 196.17 28.1922 196.466 28.5098C196.762 28.8196 196.981 29.1758 197.121 29.5786L196.139 29.9852C195.952 29.4972 195.671 29.1293 195.297 28.8815C194.923 28.6259 194.482 28.4981 193.975 28.4981C193.663 28.4981 193.387 28.5524 193.145 28.6608C192.911 28.7615 192.728 28.9125 192.595 29.1139C192.47 29.3075 192.408 29.5398 192.408 29.8109C192.408 30.1285 192.509 30.4111 192.712 30.659C192.915 30.9068 193.223 31.0966 193.636 31.2283L195.098 31.6581C195.784 31.8672 196.303 32.1654 196.653 32.5526C197.004 32.9399 197.18 33.4201 197.18 33.9932C197.18 34.4656 197.055 34.8839 196.806 35.2479C196.564 35.6119 196.225 35.8984 195.788 36.1075C195.359 36.3089 194.86 36.4096 194.291 36.4096ZM203.021 36.4096C202.405 36.4096 201.828 36.3012 201.29 36.0843C200.753 35.8597 200.281 35.546 199.875 35.1433C199.478 34.7406 199.166 34.2681 198.94 33.726C198.713 33.1761 198.6 32.5797 198.6 31.9369C198.6 31.2863 198.713 30.69 198.94 30.1478C199.166 29.6057 199.478 29.1332 199.875 28.7305C200.281 28.3277 200.749 28.018 201.279 27.8011C201.816 27.5842 202.397 27.4758 203.021 27.4758C203.645 27.4758 204.222 27.5881 204.752 27.8127C205.29 28.0296 205.758 28.3394 206.156 28.7421C206.561 29.1371 206.877 29.6057 207.103 30.1478C207.337 30.69 207.454 31.2863 207.454 31.9369C207.454 32.5797 207.337 33.1761 207.103 33.726C206.877 34.2681 206.561 34.7406 206.156 35.1433C205.758 35.546 205.29 35.8597 204.752 36.0843C204.222 36.3012 203.645 36.4096 203.021 36.4096ZM203.021 35.3524C203.504 35.3524 203.945 35.2672 204.343 35.0968C204.741 34.9187 205.084 34.6747 205.372 34.3649C205.668 34.0474 205.895 33.6834 206.05 33.2729C206.214 32.8547 206.296 32.4093 206.296 31.9369C206.296 31.4644 206.214 31.023 206.05 30.6125C205.895 30.202 205.668 29.8419 205.372 29.5321C205.084 29.2146 204.741 28.9706 204.343 28.8002C203.945 28.6221 203.504 28.533 203.021 28.533C202.546 28.533 202.109 28.6221 201.711 28.8002C201.314 28.9706 200.967 29.2146 200.67 29.5321C200.382 29.8419 200.156 30.202 199.992 30.6125C199.828 31.023 199.747 31.4644 199.747 31.9369C199.747 32.4093 199.828 32.8547 199.992 33.2729C200.156 33.6834 200.382 34.0474 200.67 34.3649C200.967 34.6747 201.314 34.9187 201.711 35.0968C202.109 35.2672 202.546 35.3524 203.021 35.3524ZM213.137 36.4096C212.521 36.4096 211.952 36.3012 211.429 36.0843C210.915 35.8597 210.462 35.546 210.073 35.1433C209.691 34.7406 209.394 34.2681 209.184 33.726C208.973 33.1838 208.868 32.5913 208.868 31.9485C208.868 31.298 208.973 30.7016 209.184 30.1594C209.394 29.6173 209.691 29.1449 210.073 28.7421C210.455 28.3394 210.907 28.0296 211.429 27.8127C211.952 27.5881 212.521 27.4758 213.137 27.4758C213.737 27.4758 214.275 27.5804 214.751 27.7895C215.234 27.9986 215.639 28.2697 215.967 28.6027C216.302 28.9357 216.54 29.292 216.68 29.6715L215.628 30.1478C215.425 29.6676 215.11 29.2804 214.68 28.9861C214.252 28.684 213.737 28.533 213.137 28.533C212.529 28.533 211.987 28.6763 211.511 28.9629C211.043 29.2494 210.677 29.6483 210.412 30.1594C210.147 30.6706 210.014 31.267 210.014 31.9485C210.014 32.6223 210.147 33.2148 210.412 33.726C210.677 34.2371 211.043 34.636 211.511 34.9226C211.987 35.2091 212.529 35.3524 213.137 35.3524C213.737 35.3524 214.252 35.2053 214.68 34.9109C215.11 34.6089 215.425 34.2178 215.628 33.7376L216.68 34.2139C216.54 34.5934 216.302 34.9497 215.967 35.2827C215.639 35.6157 215.234 35.8868 214.751 36.0959C214.275 36.305 213.737 36.4096 213.137 36.4096ZM218.239 36.2702V27.6152H219.386V36.2702H218.239ZM220.481 36.2702L223.604 27.6152H224.96L228.083 36.2702H226.855L226.142 34.2371H222.423L221.709 36.2702H220.481ZM222.785 33.1916H225.779L224.118 28.4401H224.446L222.785 33.1916ZM229.181 36.2702V27.6152H230.327V35.2246H234.151V36.2702H229.181ZM193.589 51.0553C193.098 51.0553 192.661 50.9663 192.28 50.7882C191.897 50.6025 191.597 50.3428 191.379 50.01C191.168 49.6691 191.063 49.2781 191.063 48.8363C191.063 48.4571 191.133 48.1238 191.274 47.8372C191.414 47.5431 191.585 47.2914 191.788 47.0824C191.999 46.873 192.209 46.6988 192.42 46.5595C192.638 46.4122 192.817 46.2962 192.958 46.2111L193.624 45.8276C193.85 45.6958 194.069 45.5525 194.279 45.3977C194.49 45.2429 194.665 45.0648 194.806 44.8633C194.946 44.6543 195.016 44.422 195.016 44.1663C195.016 43.8642 194.915 43.6125 194.712 43.411C194.509 43.2099 194.256 43.109 193.952 43.109C193.648 43.109 193.394 43.2099 193.192 43.411C192.989 43.6125 192.888 43.8682 192.888 44.1777C192.888 44.3871 192.938 44.5922 193.039 44.7937C193.141 44.9951 193.266 45.1887 193.414 45.3743C193.562 45.5525 193.71 45.7191 193.858 45.8739L198.595 50.916H197.156L193.004 46.5709C192.817 46.3774 192.63 46.1644 192.443 45.9321C192.256 45.6997 192.096 45.4444 191.964 45.1653C191.839 44.8788 191.777 44.5653 191.777 44.2244C191.777 43.8061 191.874 43.4423 192.069 43.1323C192.272 42.8149 192.537 42.5671 192.864 42.389C193.192 42.2108 193.554 42.1218 193.952 42.1218C194.342 42.1218 194.696 42.2108 195.016 42.389C195.343 42.5592 195.605 42.7994 195.8 43.109C195.995 43.4189 196.092 43.7752 196.092 44.1777C196.092 44.5882 195.995 44.9484 195.8 45.2584C195.605 45.5604 195.371 45.8197 195.098 46.0366C194.825 46.246 194.568 46.4201 194.326 46.5595L193.671 46.9545C193.476 47.0784 193.27 47.2257 193.051 47.3959C192.833 47.5586 192.646 47.7561 192.49 47.9884C192.334 48.2129 192.256 48.488 192.256 48.8133C192.256 49.2005 192.381 49.5025 192.63 49.7194C192.888 49.9363 193.219 50.0448 193.624 50.0448C193.881 50.0448 194.112 50.002 194.314 49.9169C194.517 49.8318 194.696 49.7194 194.852 49.5801C195.016 49.4407 195.16 49.2895 195.285 49.1268C195.41 48.9566 195.527 48.79 195.636 48.6273L196.981 46.641H198.232L196.653 49.0338C196.537 49.2278 196.388 49.4407 196.209 49.6731C196.03 49.9054 195.819 50.1259 195.577 50.3353C195.336 50.5443 195.051 50.7185 194.724 50.8578C194.404 50.9896 194.026 51.0553 193.589 51.0553ZM202.136 50.916V42.2611H203.188L206.451 46.873H205.913L209.153 42.2611H210.205V50.916H209.047V43.7016L209.457 43.8294L206.217 48.3601H206.124L202.919 43.8294L203.282 43.7016V50.916H202.136ZM212.14 50.916V42.2611H217.813V43.3065H213.286V46.0484H217.579V47.0938H213.286V49.8706H217.813V50.916H212.14ZM219.233 50.916V42.2611H222.087C222.968 42.2611 223.736 42.4392 224.391 42.7955C225.045 43.1517 225.552 43.6552 225.911 44.3056C226.269 44.9484 226.449 45.7076 226.449 46.5828C226.449 47.4501 226.269 48.2093 225.911 48.8597C225.552 49.5104 225.045 50.0175 224.391 50.3816C223.736 50.7379 222.968 50.916 222.087 50.916H219.233ZM220.379 49.8706H222.098C222.745 49.8706 223.303 49.7348 223.771 49.4637C224.246 49.1929 224.613 48.8133 224.87 48.3253C225.127 47.8297 225.256 47.2486 225.256 46.5828C225.256 45.9091 225.123 45.328 224.858 44.84C224.601 44.3523 224.235 43.9767 223.759 43.7134C223.291 43.4423 222.738 43.3065 222.098 43.3065H220.379V49.8706ZM227.902 50.916V42.2611H229.048V50.916H227.902ZM230.143 50.916L233.266 42.2611H234.623L237.745 50.916H236.517L235.804 48.883H232.085L231.371 50.916H230.143ZM232.447 47.8372H235.441L233.781 43.086H234.108L232.447 47.8372Z" fill="#FEFEFF"/>
</svg>
