<svg width="72" height="71" viewBox="0 0 72 71" fill="none" xmlns="http://www.w3.org/2000/svg">
<rect x="0.762695" y="0.0168457" width="70.4746" height="70.4746" rx="35.2373" fill="#FFFC00"/>
<path d="M36.2627 55.99C36.1442 55.99 36.0342 55.9901 35.9327 55.9731C35.8566 55.9731 35.7804 55.99 35.7043 55.99C33.0817 55.99 31.4067 54.7972 29.7739 53.6467C28.6572 52.843 27.5828 52.107 26.3477 51.8955C25.747 51.7939 25.121 51.7432 24.5542 51.7432C23.4967 51.7432 22.6676 51.9124 22.067 52.0308C21.7032 52.107 21.3733 52.1662 21.1279 52.1662C20.8741 52.1662 20.6034 52.107 20.4765 51.7009C20.375 51.354 20.2988 51.0072 20.2227 50.6772C20.045 49.8312 19.9097 49.3067 19.5459 49.2475C15.3921 48.5961 14.1993 47.7247 13.9285 47.1072C13.8947 47.0141 13.8693 46.9295 13.8693 46.8364C13.8524 46.5911 14.0216 46.3796 14.2585 46.3542C20.6457 45.2967 23.5136 38.7742 23.632 38.4865C23.632 38.4696 23.632 38.4696 23.649 38.4527C24.0381 37.6659 24.1143 36.9722 23.8774 36.4139C23.4375 35.3902 22.0077 34.9165 21.0687 34.6288C20.8403 34.5527 20.6119 34.4935 20.4511 34.4173C18.5646 33.6813 18.3954 32.9115 18.4715 32.5139C18.5899 31.8455 19.4867 31.3802 20.2058 31.3802C20.4004 31.3802 20.5865 31.4141 20.7218 31.4902C21.5678 31.8794 22.3377 32.0909 22.9975 32.0909C23.9028 32.0909 24.3088 31.7102 24.3596 31.6509C24.3258 31.211 24.3173 30.7627 24.2835 30.3058C24.0889 27.2856 23.8605 23.5295 24.808 21.3891C27.6759 14.9765 33.7416 14.4774 35.5351 14.4774C35.5774 14.4774 36.3219 14.4604 36.3219 14.4604H36.4319C38.2253 14.4604 44.308 14.9596 47.1759 21.3891C48.1234 23.5295 47.9035 27.2941 47.7004 30.3058L47.6835 30.4412C47.6497 30.8642 47.6412 31.2703 47.6074 31.6679C47.6497 31.7102 48.0134 32.057 48.8425 32.1078C49.477 32.0739 50.2046 31.8794 50.9829 31.5071C51.2113 31.4056 51.482 31.3718 51.6512 31.3718C51.9219 31.3718 52.1926 31.4141 52.421 31.524H52.438C53.0894 31.7525 53.4954 32.2008 53.5124 32.6746C53.5293 33.1145 53.1824 33.7744 51.5158 34.4427C51.3466 34.5019 51.1267 34.5781 50.8983 34.6542C49.9508 34.9588 48.5295 35.4071 48.0896 36.4392C47.8442 36.9976 47.9204 37.6913 48.318 38.4781C48.318 38.495 48.318 38.495 48.3349 38.5119C48.4534 38.7826 51.3213 45.3221 57.7085 46.3712C57.9538 46.4135 58.1146 46.6249 58.0976 46.8534C58.0976 46.9464 58.0638 47.031 58.0384 47.1241C57.7846 47.7417 56.5918 48.6215 52.421 49.256C52.0911 49.2983 51.9557 49.7551 51.7443 50.6772C51.6681 51.0072 51.592 51.3371 51.4905 51.6924C51.3974 51.997 51.2197 52.1323 50.8983 52.1323H50.856C50.6275 52.1323 50.3315 52.09 49.9169 52.0139C49.2063 51.8785 48.4195 51.7432 47.4297 51.7432C46.8375 51.7432 46.2369 51.7855 45.6362 51.8955C44.3842 52.107 43.3267 52.843 42.21 53.6467C40.5687 54.7972 38.8768 55.99 36.2627 55.99Z" fill="white"/>
<path d="M36.4152 14.0205H36.3137H35.5269C33.6742 14.0205 27.3462 14.5366 24.3768 21.2199C23.3785 23.4702 23.6239 27.2856 23.8015 30.3481C23.8354 30.7119 23.8438 31.0841 23.8607 31.4479C23.7085 31.5409 23.4208 31.6425 22.9894 31.6425C22.3972 31.6425 21.7035 31.4648 20.9082 31.0841C20.6967 30.991 20.4514 30.9318 20.1976 30.9318C19.2755 30.9318 18.1757 31.5325 18.0065 32.4377C17.888 33.0891 18.1757 34.0366 20.2737 34.8657C20.4683 34.9418 20.6967 35.018 20.9252 35.0941C21.7881 35.3648 23.0993 35.7878 23.4462 36.6169C23.6239 37.0568 23.5477 37.6151 23.2347 38.275C23.2347 38.2919 23.2178 38.3089 23.2178 38.3173C23.0993 38.588 20.333 44.8822 14.208 45.8974C13.7427 45.9735 13.3959 46.3965 13.4212 46.8787C13.4381 47.0141 13.4635 47.1664 13.5227 47.3017C13.988 48.3761 15.9254 49.1713 19.4701 49.7128C19.5885 49.882 19.7154 50.4403 19.7831 50.7872C19.8592 51.1171 19.9353 51.4809 20.0369 51.8447C20.1384 52.2084 20.4176 52.6484 21.1366 52.6484C21.4243 52.6484 21.7711 52.5891 22.1603 52.4961C22.7525 52.3776 23.5646 52.2254 24.5629 52.2254C25.1213 52.2254 25.7134 52.2677 26.2803 52.3776C27.4308 52.5722 28.3952 53.249 29.5119 54.0527C31.1278 55.1863 32.9382 56.4807 35.713 56.4807C35.7892 56.4807 35.8653 56.4807 35.9415 56.4638C36.0345 56.4638 36.153 56.4807 36.2714 56.4807C39.0462 56.4807 40.8567 55.1948 42.4725 54.0527C43.6061 53.249 44.5705 52.5722 45.7042 52.3776C46.2964 52.2846 46.8632 52.2254 47.4215 52.2254C48.386 52.2254 49.1389 52.3438 49.8241 52.4792C50.2471 52.5722 50.594 52.5976 50.8478 52.5976H50.8816H50.9155C51.44 52.5976 51.8037 52.3269 51.956 51.8108C52.0575 51.4471 52.1337 51.1002 52.2098 50.7703C52.286 50.4234 52.4044 49.8651 52.5228 49.6959C56.0506 49.1544 58.0048 48.3507 58.4701 47.2848C58.5294 47.1494 58.5632 46.9972 58.5717 46.8618C58.6055 46.3796 58.2586 45.9566 57.7849 45.8804C51.643 44.8653 48.8766 38.5626 48.7751 38.3004C48.7751 38.2835 48.7582 38.2666 48.7582 38.2581C48.4282 37.5982 48.3521 37.0399 48.5467 36.6C48.8935 35.7709 50.2048 35.3479 51.0677 35.0772C51.3131 35.001 51.533 34.9249 51.7191 34.8488C53.2419 34.2481 54.0118 33.5036 53.9949 32.6492C53.9779 31.9724 53.4534 31.3633 52.6244 31.0756C52.3367 30.9572 52.0068 30.898 51.6853 30.898C51.4569 30.898 51.127 30.9318 50.8224 31.0756C50.0949 31.4225 49.435 31.6002 48.8766 31.634C48.4959 31.6171 48.2591 31.5325 48.1237 31.4394C48.1406 31.1264 48.1575 30.8049 48.1829 30.475L48.1998 30.3396C48.3944 27.2772 48.6398 23.4533 47.6246 21.2114C44.6128 14.5281 38.2848 14.0205 36.4152 14.0205ZM36.4152 14.9511C38.1241 14.9511 43.9784 15.4079 46.7363 21.5921C47.6415 23.6309 47.4131 27.3279 47.2185 30.2889C47.1846 30.7542 47.1593 31.211 47.1423 31.6509L47.1254 31.8286L47.2439 31.9639C47.2862 32.0232 47.7684 32.5054 48.8174 32.5561H48.8343H48.8512C49.545 32.5223 50.3317 32.3108 51.1777 31.9216C51.2962 31.8624 51.4654 31.8286 51.643 31.8286C51.8376 31.8286 52.0491 31.8709 52.2352 31.9301L52.269 31.947C52.7259 32.0993 53.022 32.4038 53.0389 32.6746C53.0389 32.8268 52.9374 33.3683 51.3469 33.9858C51.1946 34.0451 50.9831 34.1043 50.7547 34.1804C49.7311 34.5104 48.1745 34.9926 47.6415 36.2362C47.3369 36.9299 47.43 37.742 47.8868 38.6642C48.0645 39.1041 51.0085 45.7113 57.6072 46.8026C57.6072 46.8364 57.5903 46.8618 57.5734 46.9126C57.4719 47.1664 56.7443 48.0885 52.3198 48.7653C51.6261 48.8668 51.4569 49.6536 51.2623 50.5503C51.1862 50.8633 51.127 51.2017 51.017 51.5317C50.9831 51.6332 50.9831 51.6332 50.8647 51.6332H50.8224C50.6278 51.6332 50.3233 51.5909 49.9764 51.5317C49.3419 51.4132 48.479 51.2609 47.3961 51.2609C46.7786 51.2609 46.1441 51.3202 45.5265 51.4132C44.1645 51.6416 43.0647 52.4284 41.9057 53.2406C40.3321 54.3403 38.7248 55.4909 36.246 55.4909C36.1445 55.4909 36.0345 55.4909 35.933 55.474H35.8992H35.8653H35.6877C33.2089 55.474 31.6015 54.3234 30.028 53.2236C28.869 52.3946 27.7607 51.6247 26.4072 51.3963C25.7727 51.2948 25.1382 51.244 24.5375 51.244C23.4377 51.244 22.5748 51.4132 21.9573 51.5317C21.6104 51.6078 21.3058 51.6501 21.1113 51.6501C20.9421 51.6501 20.9421 51.6332 20.9167 51.5317C20.8152 51.2017 20.7475 50.8549 20.6714 50.5334C20.4768 49.6282 20.3076 48.8414 19.6139 48.7399C15.1893 48.0631 14.4787 47.141 14.3603 46.8872C14.3434 46.8449 14.3264 46.811 14.3264 46.7857C20.9336 45.7028 23.8692 39.0872 24.0469 38.6472C24.5037 37.7251 24.5714 36.913 24.2922 36.2193C23.7677 34.9841 22.2111 34.5019 21.1789 34.1635C20.9336 34.0874 20.739 34.0281 20.5868 33.9689C19.2586 33.4444 18.8356 32.9114 18.8948 32.5984C18.9709 32.2177 19.6054 31.8455 20.1638 31.8455C20.2822 31.8455 20.4091 31.8624 20.4768 31.9047C21.382 32.3277 22.228 32.5561 22.9555 32.5561C24.1061 32.5561 24.6137 32.0316 24.6729 31.9639L24.7913 31.8286L24.7744 31.6509C24.7406 31.211 24.7321 30.7626 24.6983 30.2889C24.5206 27.3195 24.2753 23.6309 25.1805 21.5921C27.9299 15.4164 33.7673 14.9511 35.4931 14.9511H36.2799C36.356 14.9511 36.3814 14.9511 36.4152 14.9511Z" fill="black"/>
</svg>
