<svg width="878" height="597" viewBox="0 0 878 597" fill="none" xmlns="http://www.w3.org/2000/svg">
<path d="M340 15.9999C77.7873 15.9998 99.4995 68.4995 49.9833 138.601C32.3546 160.159 16.1788 224.149 5.97309 306.011C-27.0003 570.5 79.5992 596.115 271.514 596.115C360.095 596.115 469.605 591.595 570 594.535C734.229 599.344 874.066 595.627 858 453C840.913 301.316 923 239 839 138.601C779.57 67.5704 794.5 28.9299 675.344 7.86513C558.749 -12.7469 425.678 18.2172 340 15.9999Z" fill="#F2F6FF"/>
<path d="M136.459 520.049L153.287 429.359L148.15 426.17L129.728 520.049H136.459Z" fill="url(#paint0_linear_312_152)"/>
<path d="M193.672 521.644L179.502 446.363L186.055 448.843L200.757 521.644H193.672Z" fill="url(#paint1_linear_312_152)"/>
<path d="M245.925 520.049L258.324 456.991H264.347L252.302 520.049H245.925Z" fill="url(#paint2_linear_312_152)"/>
<path d="M335.706 496.303L319.587 416.418H313.741L329.86 496.303H335.706Z" fill="url(#paint3_linear_312_152)"/>
<path d="M125.287 346.613C136.442 272.365 165.295 250.513 181.855 249.262C255.33 235.504 281.631 302.836 288.728 314.719C295.825 326.601 295.617 357.244 321.5 402.48C347.384 447.716 330.778 407.915 327.855 438.01C121.122 517.719 116.893 402.48 125.287 346.613Z" fill="url(#paint4_linear_312_152)"/>
<path d="M161.825 338.112C166.502 274.487 191.051 249.898 205.103 248.835C267.453 237.144 289.771 294.357 295.794 304.454C301.816 314.55 301.639 340.589 323.603 379.026C345.568 417.463 336.003 440.844 322.186 444.387C159.226 480.876 158.336 385.583 161.825 338.112Z" fill="url(#paint5_linear_312_152)"/>
<path d="M267.371 412.61C266.24 412.987 155.417 415.626 213.844 402.055C260.586 391.199 269.005 404.568 267.371 412.61Z" fill="#D0A85B"/>
<path d="M324.441 501.639L319.541 483.546L336.88 479.399L338.765 502.77C339.519 510.686 341.404 512.571 343.665 518.602C345.514 523.533 349.445 528.529 351.581 530.288L353.089 532.926L338.011 531.418L325.949 519.356C324.567 517.22 322.179 512.42 323.687 510.309C325.195 508.198 324.818 503.65 324.441 501.639Z" fill="#FFB27D"/>
<path d="M326.326 535.942C325.723 529.911 323.561 522.372 322.556 519.356L328.964 523.126L328.587 535.942H326.326Z" fill="#253D68"/>
<path d="M324.44 521.241C319.012 519.13 321.676 512.823 323.686 509.933C323.686 512.043 325.697 515.587 326.702 517.095C328.838 520.11 334.015 526.669 337.634 528.78C341.252 530.891 347.937 529.911 350.827 529.157C351.958 529.911 354.822 531.645 357.235 532.55C359.647 533.454 359.497 534.434 359.12 534.811C355.978 534.811 348.565 534.887 344.042 535.188C339.518 535.49 337.131 533.555 336.503 532.55C334.618 529.785 329.567 523.654 324.44 521.241Z" fill="#355389"/>
<path d="M359.489 497.038L353.501 476.184L374.118 471.246L376.558 498.221C377.522 507.356 379.782 509.517 382.526 516.463C384.77 522.142 389.493 527.877 392.052 529.89L393.87 532.924L375.899 531.313L361.432 517.486C359.769 515.031 356.885 509.508 358.663 507.058C360.441 504.607 359.954 499.357 359.489 497.038Z" fill="#FFB27D"/>
<path d="M361.36 536.695C360.579 529.841 357.782 521.274 356.481 517.848L364.774 522.131L364.287 536.695H361.36Z" fill="#253D68"/>
<path d="M359.039 520.105C352.166 517.713 355.539 510.567 358.084 507.293C358.084 509.685 360.63 513.699 361.903 515.407C364.608 518.823 371.162 526.254 375.744 528.646C380.326 531.037 388.791 529.927 392.45 529.073C393.882 529.927 397.509 531.891 400.564 532.916C403.619 533.941 403.428 535.051 402.95 535.478C398.973 535.478 389.586 535.564 383.858 535.905C378.131 536.247 375.108 534.055 374.313 532.916C371.926 529.784 365.53 522.838 359.039 520.105Z" fill="#355389"/>
<path d="M376.459 471.483L349.695 479.399C343.061 449.846 340.146 420.343 339.518 409.286H332.356L289.006 385.162L256.212 362.545L269.405 339.928C269.782 340.933 270.611 343.697 270.913 346.713C271.516 357.267 282.221 358.901 287.499 358.398C293.907 358.398 318.032 362.545 342.156 369.33C362.088 374.935 368.417 389.811 368.92 397.224L376.459 471.483Z" fill="url(#paint6_linear_312_152)"/>
<path d="M199.681 378C199.379 373.175 205.335 350.859 208.351 340.305C213.628 342.943 230.968 343.32 245.292 343.697C256.751 343.999 266.401 340.305 269.794 338.42C268.286 369.481 297.688 370.461 313.897 372.722C341.037 378 337.644 412.679 337.644 416.825C337.644 421.726 340.66 459.923 341.037 479.022C335.006 480.404 321.586 483.47 316.158 484.676C312.389 475.63 306.106 431.15 303.719 406.271H232.476C195.535 408.533 200.058 384.031 199.681 378Z" fill="url(#paint7_linear_312_152)"/>
<path d="M336.213 330.881C344.199 335.613 353.402 344.176 326.325 340.575C328.759 334.205 333.931 331.458 336.213 330.881Z" fill="#FFB27D"/>
<path d="M414.943 291.302H365.186L331.261 345.206H381.395C392.201 328.369 414.039 294.468 414.943 293.564C415.848 292.659 415.32 291.679 414.943 291.302Z" fill="#163561"/>
<path d="M279.241 345.205C277.13 343.698 278.362 342.315 279.241 341.813H331.26L364.432 290.925H366.316L331.26 345.205H279.241Z" fill="#0B2346"/>
<path d="M299.939 338.043C292.4 336.535 282.599 337.163 278.076 338.043L280.714 328.996L313.886 319.572L321.802 335.404C317.53 336.661 307.176 338.948 299.939 338.043Z" fill="#FFB27D"/>
<path d="M281.578 256.999C285.348 263.407 293.942 279.616 298.164 293.186C303.441 310.149 315.881 318.819 320.781 319.573C324.701 320.176 333.22 326.861 336.99 330.127L326.812 341.436C316.132 339.677 292.811 333.218 284.971 321.458C279.253 312.88 277.197 310.064 276.698 309.558L276.678 309.772C276.542 309.5 276.513 309.37 276.698 309.558L281.578 256.999Z" fill="url(#paint8_linear_312_152)"/>
<path d="M194.016 260.015C185.27 279.013 202.434 296.453 211.732 302.61L252.443 238.906L270.913 258.13C272.17 258.381 275.512 257.828 278.829 253.607C282.976 248.329 282.599 246.821 283.353 241.921C284.106 237.021 275.814 220.058 273.175 217.042C271.064 214.63 272.295 206.237 273.175 202.341C273.678 201.713 274.532 199.477 273.929 195.556C273.175 190.656 269.782 180.855 250.558 178.217C231.334 175.578 225.302 186.51 223.795 211.011C216.256 236.644 204.947 236.267 194.016 260.015Z" fill="#163561"/>
<path d="M226.433 246.445C230.052 245.842 236.36 239.157 238.496 236.644C236.083 241.771 237.491 247.324 238.873 249.083L257.72 279.239L261.49 256.999L259.228 240.414C260.736 241.544 264.204 244.485 266.013 247.199C270.913 247.199 270.913 249.46 280.337 254.738C288.178 264.086 282.096 295.574 278.075 310.149C274.934 317.562 269.029 332.917 270.536 335.028C272.421 337.666 271.29 341.813 267.144 345.205C263.827 347.919 246.16 348.598 237.742 348.598C230.957 348.095 216.482 346.939 212.863 346.336C208.34 345.582 206.078 340.682 209.094 335.028C211.506 330.504 209.596 316.557 208.34 310.149C205.827 301.982 201.404 282.255 203.816 268.685C206.832 251.722 221.91 247.199 226.433 246.445Z" fill="url(#paint9_linear_312_152)"/>
<path d="M203.439 286.024C206.831 307.133 207.837 306.379 210.224 312.411C213.24 318.065 220.477 331.56 225.302 340.305C229.825 346.713 264.505 342.19 282.975 338.043C284.357 334.022 286.896 325.905 285.991 325.604C284.86 325.227 269.782 319.573 257.343 321.08C247.391 322.287 242.893 316.808 241.888 313.918L227.941 277.731C223.794 264.538 200.046 264.915 203.439 286.024Z" fill="url(#paint10_linear_312_152)"/>
<path d="M247.165 201.965C255.006 195.933 257.72 189.4 258.097 186.887C258.097 187.641 259.756 189.827 266.39 192.541C273.024 195.255 273.677 200.959 273.175 203.472C273.552 209.127 273.853 221.114 272.044 223.828C268.727 233.779 262.118 235.262 259.228 234.759V240.79L265.259 257.376L257.72 279.616C252.694 271.952 241.888 255.341 238.873 250.214C234.952 246.294 236.736 239.911 237.365 237.775L240.38 221.189C239.124 221.189 236.309 219.531 235.103 212.896C235.103 203.849 241.511 211.011 243.019 211.388C243.773 207.619 245.281 204.603 247.165 201.965Z" fill="#FFB27D"/>
<path d="M760.418 520.049L743.59 429.359L748.727 426.17L767.149 520.049H760.418Z" fill="url(#paint11_linear_312_152)"/>
<path d="M703.205 521.644L717.376 446.363L710.822 448.843L696.12 521.644H703.205Z" fill="url(#paint12_linear_312_152)"/>
<path d="M650.95 520.049L638.551 456.991H632.529L644.574 520.049H650.95Z" fill="url(#paint13_linear_312_152)"/>
<path d="M561.171 496.303L577.29 416.418H583.135L567.016 496.303H561.171Z" fill="url(#paint14_linear_312_152)"/>
<path d="M771.591 346.613C760.436 272.365 731.583 250.513 715.023 249.262C641.548 235.504 615.247 302.836 608.15 314.719C601.053 326.601 601.261 357.244 575.378 402.48C549.494 447.716 566.1 407.915 569.023 438.01C775.756 517.719 779.985 402.48 771.591 346.613Z" fill="url(#paint15_linear_312_152)"/>
<path d="M735.053 338.112C730.376 274.487 705.827 249.898 691.775 248.835C629.425 237.144 607.106 294.357 601.084 304.454C595.062 314.55 595.239 340.589 573.274 379.026C551.31 417.463 560.875 440.844 574.692 444.387C737.652 480.876 738.541 385.583 735.053 338.112Z" fill="url(#paint16_linear_312_152)"/>
<path d="M629.508 412.61C630.639 412.987 741.462 415.626 683.035 402.055C636.293 391.199 627.874 404.568 629.508 412.61Z" fill="#D0A85B"/>
<path d="M544.646 517.071L546.874 492.104V483.537L530.784 479.376L530.289 512.175L544.646 517.071Z" fill="#FFB27D"/>
<path d="M546.872 513.263C537.192 513.462 531.074 509.853 529.226 508.024C529.394 508.855 529.629 511.267 529.226 514.261C527.209 520.497 506.79 519.499 494.437 520.497C482.589 526.983 493.177 532.971 493.177 536.214C493.177 539.457 508.807 541.203 514.605 537.96C519.243 535.365 538.721 535.049 547.88 535.216L548.889 521.745C549.309 519.333 549.494 514.261 546.872 513.263Z" fill="#1C4385"/>
<path d="M509.932 489.176L510.454 508.846L528.983 515.563L530.287 489.656L509.932 489.176Z" fill="#FFB27D"/>
<path d="M488.057 538.037C465.195 538.037 467.348 528.842 472.153 524.121C476.046 522.381 484.677 518.604 488.057 517.411C492.281 515.921 503.214 513.684 505.948 507.969C508.119 503.43 511.122 506.433 513.111 508.422L513.154 508.466C515.639 510.454 518.124 511.696 521.603 512.193C524.005 512.525 529.058 513.088 530.052 512.69C531.294 512.193 533.779 513.933 533.282 522.133C532.885 528.693 532.62 533.315 532.537 534.806C532.537 535.469 530.599 536.695 522.846 536.297C513.154 535.8 493.027 535.303 488.057 538.037Z" fill="#2555A5"/>
<path d="M492.041 519.168C492.206 520.659 493.78 523.989 498.75 525.38" stroke="#4271BE" stroke-linecap="round"/>
<path d="M496.762 517.428C496.928 518.919 498.502 522.249 503.472 523.641" stroke="#4271BE" stroke-linecap="round"/>
<path d="M502.229 515.441C502.395 516.932 503.969 520.261 508.939 521.653" stroke="#4271BE" stroke-linecap="round"/>
<path d="M506.205 512.459C506.37 513.95 507.944 517.279 512.914 518.671" stroke="#4271BE" stroke-linecap="round"/>
<path d="M560.906 431.742C566.088 405.632 598.442 404.709 613.971 407.511C572.316 370.324 538.816 391.192 527.273 406.275C528.186 432.649 530.711 486.683 533.501 491.826C536.292 496.969 544.297 495.123 547.951 493.557C550.11 483.831 555.724 457.853 560.906 431.742Z" fill="url(#paint17_linear_312_152)"/>
<path d="M537.133 362.212C505.786 364.783 500.509 376.845 503.125 387.651C504.118 421.403 506.6 489.605 508.586 492.399C511.069 495.89 522.487 496.389 532.665 492.399C539.119 481.674 537.133 430.797 539.119 410.845C541.105 390.893 586.284 405.607 635.93 408.351C675.648 410.546 685.081 402.116 684.833 397.627L655.044 387.651C628.632 380.867 611.603 366.701 597.702 362.212C591.496 363.708 570.773 359.453 537.133 362.212Z" fill="#1D468A"/>
<path d="M546.72 255.455C546.72 258.409 551.346 266.696 553.659 270.47L551.181 278.839L535.073 265.055C532.347 263.004 525.309 258.409 518.965 256.44C512.621 254.471 516.322 253.486 518.965 253.24C519.13 253.322 518.618 253.043 515.248 251.271C507.913 244.969 518.304 251.107 524.417 254.963L514.505 248.563C506.974 241.807 519.685 250.189 526.492 252.145C522.301 250.909 513.066 245.57 514.505 244.379C526.152 243.148 538.542 253.732 538.79 252.255C539.038 250.778 538.542 248.071 535.568 242.656C533.834 234.779 538.542 238.964 540.277 241.917C542.012 244.871 546.72 251.763 546.72 255.455Z" fill="#FFB27D"/>
<path d="M581.553 309.748C583.698 314.136 587.344 323.596 584.77 326.334C588.73 324.228 589.225 311.855 581.553 309.748Z" fill="#BC8E35"/>
<path d="M626.788 248.663L628.472 219.281L649.405 221.6V249.437L626.788 248.663Z" fill="#FFB27D"/>
<path d="M624.35 241.242C620.491 245.113 611.26 250.385 605.886 253.827L600.138 320.274C599.472 330.935 598.139 354.588 598.139 363.91C604.137 364.158 630.627 382.257 644.621 393.663C655.171 402.26 675.426 401.993 685.813 400.62C686.957 400.468 687.954 399.797 688.488 398.775C690.066 395.755 693.068 389.261 697.101 378.538C706.297 346.803 690.77 296.389 681.857 275.149C680.23 270.51 677.235 262.887 670.425 253.554C667.181 249.109 661.815 246.945 657.118 244.08C655.071 242.831 653.54 241.343 652.532 239.888C651.748 238.756 650.013 238.056 648.665 238.341C643.828 239.366 634.802 239.049 628.954 238.923C627.213 238.886 625.58 240.009 624.35 241.242Z" fill="#F99744"/>
<path d="M608.966 251.293C598.837 253.871 591.505 273.02 589.105 282.272C587.119 284.453 582.815 299.868 580.912 307.303C572.223 294.086 554.894 267.452 555.092 266.659C555.341 265.667 539.452 263.933 540.941 274.589C542.431 285.246 559.313 318.456 566.016 331.839C572.719 345.222 579.671 346.461 589.105 339.522C598.539 332.582 593.822 337.539 616.91 309.038C632.303 267.154 621.628 248.071 608.966 251.293Z" fill="url(#paint18_linear_312_152)"/>
<path d="M639.98 227.197L628.442 229.268C619.184 231.442 612.743 231.404 609.535 225.526C600.671 209.288 612.305 169.992 625.457 174.388H625.955C631.843 184.366 643.569 204.621 643.37 205.819C643.171 207.016 640.892 220.545 639.98 227.197Z" fill="#FFB27D"/>
<path d="M629.894 165.058C613.197 165.849 615.244 175.273 618.354 179.887C624.983 188.043 623.354 198.429 621.439 203.429C621.241 203.945 621.464 204.538 621.969 204.765L622.32 204.922C622.843 205.157 623.447 204.898 623.755 204.414C624.756 202.843 627.211 200.926 633.331 202.871C643.546 207.023 641.843 220.995 639.715 227.339C641.68 227.751 647.229 228.327 653.711 228.327C666.724 213.004 670.162 198.67 668.689 187.301C667.215 175.932 650.764 164.069 629.894 165.058Z" fill="#5F3F3F"/>
<path d="M639.796 227.197C635.876 229.006 630.121 229.458 627.733 229.458V232.851C632.257 232.097 641.002 229.911 639.796 227.197Z" fill="#E79964"/>
<rect x="272.114" y="344.695" width="326" height="4" fill="#C3D5EF"/>
<path fill-rule="evenodd" clip-rule="evenodd" d="M296.975 119C290.348 119 284.975 124.373 284.975 131V153.337C284.975 154.712 285.207 156.033 285.632 157.263L277.56 170.317C276.988 171.241 278.094 172.286 278.984 171.661L290.608 163.51C292.453 164.667 294.636 165.337 296.975 165.337H360.5C367.127 165.337 372.5 159.964 372.5 153.337V131C372.5 124.373 367.127 119 360.5 119H296.975Z" fill="white"/>
<path d="M330.484 149.594H327.578C327.589 148.594 327.677 147.776 327.844 147.141C328.021 146.495 328.307 145.906 328.703 145.375C329.099 144.844 329.625 144.24 330.281 143.562C330.76 143.073 331.198 142.615 331.594 142.188C332 141.75 332.328 141.281 332.578 140.781C332.828 140.271 332.953 139.661 332.953 138.953C332.953 138.234 332.823 137.615 332.562 137.094C332.312 136.573 331.938 136.172 331.438 135.891C330.948 135.609 330.339 135.469 329.609 135.469C329.005 135.469 328.432 135.578 327.891 135.797C327.349 136.016 326.911 136.354 326.578 136.812C326.245 137.26 326.073 137.849 326.062 138.578H323.172C323.193 137.401 323.484 136.391 324.047 135.547C324.62 134.703 325.391 134.057 326.359 133.609C327.328 133.161 328.411 132.938 329.609 132.938C330.932 132.938 332.057 133.177 332.984 133.656C333.922 134.135 334.635 134.823 335.125 135.719C335.615 136.604 335.859 137.656 335.859 138.875C335.859 139.812 335.667 140.677 335.281 141.469C334.906 142.25 334.422 142.984 333.828 143.672C333.234 144.359 332.604 145.016 331.938 145.641C331.365 146.172 330.979 146.771 330.781 147.438C330.583 148.104 330.484 148.823 330.484 149.594ZM327.453 154.547C327.453 154.078 327.599 153.682 327.891 153.359C328.182 153.036 328.604 152.875 329.156 152.875C329.719 152.875 330.146 153.036 330.438 153.359C330.729 153.682 330.875 154.078 330.875 154.547C330.875 154.995 330.729 155.38 330.438 155.703C330.146 156.026 329.719 156.188 329.156 156.188C328.604 156.188 328.182 156.026 327.891 155.703C327.599 155.38 327.453 154.995 327.453 154.547Z" fill="#163561"/>
<path fill-rule="evenodd" clip-rule="evenodd" d="M596.32 99C602.948 99 608.32 104.373 608.32 111V134.287C608.32 135.601 608.109 136.865 607.719 138.048L615.94 151.343C616.512 152.268 615.406 153.312 614.516 152.688L602.738 144.428C600.882 145.605 598.681 146.287 596.32 146.287H531C524.373 146.287 519 140.915 519 134.287V111C519 104.373 524.373 99 531 99H596.32Z" fill="white"/>
<circle cx="543" cy="123" r="3" fill="#163561"/>
<circle cx="559" cy="123" r="3" fill="#163561"/>
<circle cx="575" cy="123" r="3" fill="#163561"/>
<circle cx="454.24" cy="56.2405" r="25.5" transform="rotate(19.977 454.24 56.2405)" fill="white" stroke="#6985D5" stroke-width="4"/>
<line x1="464.24" y1="34.5869" x2="461.689" y2="41.6037" stroke="#6985D5" stroke-width="4"/>
<line x1="450.471" y1="72.4634" x2="447.92" y2="79.4803" stroke="#6985D5" stroke-width="4"/>
<line x1="470.463" y1="60.0097" x2="477.48" y2="62.5605" stroke="#6985D5" stroke-width="4"/>
<line x1="432.367" y1="46.1612" x2="439.384" y2="48.712" stroke="#6985D5" stroke-width="4"/>
<circle cx="454.119" cy="55.9803" r="1.24434" transform="rotate(19.977 454.119 55.9803)" fill="#6985D5"/>
<rect x="446.178" y="40.2463" width="0.746606" height="18.117" rx="0.373303" transform="rotate(-25.1709 446.178 40.2463)" fill="#6985D5"/>
<rect x="454.029" y="56.4579" width="0.497738" height="13.7877" rx="0.248869" transform="rotate(2.17874 454.029 56.4579)" fill="#6985D5"/>
<defs>
<linearGradient id="paint0_linear_312_152" x1="129.646" y1="522.579" x2="133.287" y2="422.655" gradientUnits="userSpaceOnUse">
<stop offset="0.550331" stop-color="#7C8DB7"/>
<stop offset="1" stop-color="#A1ACBB"/>
</linearGradient>
<linearGradient id="paint1_linear_312_152" x1="179.428" y1="523.672" x2="182.023" y2="443.522" gradientUnits="userSpaceOnUse">
<stop offset="0.550331" stop-color="#7C8DB7"/>
<stop offset="1" stop-color="#A1ACBB"/>
</linearGradient>
<linearGradient id="paint2_linear_312_152" x1="245.861" y1="521.748" x2="247.962" y2="454.606" gradientUnits="userSpaceOnUse">
<stop offset="0.550331" stop-color="#7C8DB7"/>
<stop offset="1" stop-color="#A1ACBB"/>
</linearGradient>
<linearGradient id="paint3_linear_312_152" x1="313.665" y1="498.456" x2="316.493" y2="413.407" gradientUnits="userSpaceOnUse">
<stop offset="0.550331" stop-color="#7C8DB7"/>
<stop offset="1" stop-color="#A1ACBB"/>
</linearGradient>
<linearGradient id="paint4_linear_312_152" x1="229.395" y1="247.418" x2="229.395" y2="465.233" gradientUnits="userSpaceOnUse">
<stop stop-color="#F7CD7E"/>
<stop offset="1" stop-color="#EEBA59"/>
</linearGradient>
<linearGradient id="paint5_linear_312_152" x1="246.546" y1="247.268" x2="246.546" y2="452.123" gradientUnits="userSpaceOnUse">
<stop stop-color="#FBE0B3"/>
<stop offset="1" stop-color="#FFCB6A"/>
</linearGradient>
<linearGradient id="paint6_linear_312_152" x1="316.335" y1="339.928" x2="316.335" y2="479.399" gradientUnits="userSpaceOnUse">
<stop stop-color="#337F6D"/>
<stop offset="1" stop-color="#267361"/>
</linearGradient>
<linearGradient id="paint7_linear_312_152" x1="270.353" y1="338.42" x2="270.353" y2="484.676" gradientUnits="userSpaceOnUse">
<stop stop-color="#3D8F7D"/>
<stop offset="1" stop-color="#44B09D"/>
</linearGradient>
<linearGradient id="paint8_linear_312_152" x1="287.118" y1="259.835" x2="354.737" y2="308.033" gradientUnits="userSpaceOnUse">
<stop stop-color="#1DAEFF"/>
<stop offset="1" stop-color="#2A66FF"/>
</linearGradient>
<linearGradient id="paint9_linear_312_152" x1="243.629" y1="236.644" x2="243.629" y2="348.598" gradientUnits="userSpaceOnUse">
<stop stop-color="#00A3FE"/>
<stop offset="1" stop-color="#0047FE"/>
</linearGradient>
<linearGradient id="paint10_linear_312_152" x1="217.614" y1="271.315" x2="280.564" y2="341.051" gradientUnits="userSpaceOnUse">
<stop stop-color="#1DAEFF"/>
<stop offset="1" stop-color="#2A66FF"/>
</linearGradient>
<linearGradient id="paint11_linear_312_152" x1="767.231" y1="522.579" x2="763.59" y2="422.655" gradientUnits="userSpaceOnUse">
<stop offset="0.550331" stop-color="#7C8DB7"/>
<stop offset="1" stop-color="#A1ACBB"/>
</linearGradient>
<linearGradient id="paint12_linear_312_152" x1="717.45" y1="523.672" x2="714.854" y2="443.522" gradientUnits="userSpaceOnUse">
<stop offset="0.550331" stop-color="#7C8DB7"/>
<stop offset="1" stop-color="#A1ACBB"/>
</linearGradient>
<linearGradient id="paint13_linear_312_152" x1="651.014" y1="521.748" x2="648.913" y2="454.606" gradientUnits="userSpaceOnUse">
<stop offset="0.550331" stop-color="#7C8DB7"/>
<stop offset="1" stop-color="#A1ACBB"/>
</linearGradient>
<linearGradient id="paint14_linear_312_152" x1="583.211" y1="498.456" x2="580.383" y2="413.407" gradientUnits="userSpaceOnUse">
<stop offset="0.550331" stop-color="#7C8DB7"/>
<stop offset="1" stop-color="#A1ACBB"/>
</linearGradient>
<linearGradient id="paint15_linear_312_152" x1="667.483" y1="247.418" x2="667.483" y2="465.233" gradientUnits="userSpaceOnUse">
<stop stop-color="#F7CD7E"/>
<stop offset="1" stop-color="#EEBA59"/>
</linearGradient>
<linearGradient id="paint16_linear_312_152" x1="650.332" y1="247.268" x2="650.332" y2="452.123" gradientUnits="userSpaceOnUse">
<stop stop-color="#FBE0B3"/>
<stop offset="1" stop-color="#FFCB6A"/>
</linearGradient>
<linearGradient id="paint17_linear_312_152" x1="570.614" y1="386.704" x2="570.614" y2="495.207" gradientUnits="userSpaceOnUse">
<stop stop-color="#163561"/>
<stop offset="1" stop-color="#113D7B"/>
</linearGradient>
<linearGradient id="paint18_linear_312_152" x1="618.31" y1="259.237" x2="545.559" y2="315.779" gradientUnits="userSpaceOnUse">
<stop stop-color="#FFB372"/>
<stop offset="1" stop-color="#FF9D2B"/>
</linearGradient>
</defs>
</svg>
