<svg width="3348" height="1605" viewBox="0 0 3348 1605" fill="none" xmlns="http://www.w3.org/2000/svg">
<rect width="3348" height="1605" fill="#F5F5F5"/>
<rect width="3348" height="1605" fill="white"/>
<g opacity="0.8" filter="url(#filter0_f_0_1)">
<path d="M1907.79 1059.78C2018.41 1012.47 2116.24 788.444 2109.82 700.207C2103.4 611.971 1910.48 793.328 1799.86 840.637C1689.24 887.947 1689.45 897.438 1695.87 985.674C1702.29 1073.91 1797.17 1107.09 1907.79 1059.78Z" fill="#FF9F00"/>
<ellipse cx="1928.51" cy="907.44" rx="379" ry="237.5" fill="#9C51B6"/>
<path d="M1610.16 922.263C1703.31 1050.22 2348.43 1064.97 2624.05 1008.4C2899.68 951.825 2431.9 782.059 2338.76 654.097C2245.61 526.135 2216.19 531.556 1940.57 588.13C1664.95 644.704 1517.02 794.3 1610.16 922.263Z" fill="#FF9F00"/>
<ellipse rx="169.979" ry="432.349" transform="matrix(0.237573 0.97137 -0.991506 0.13006 2518.45 763.69)" fill="#9C51B6"/>
<path d="M705.285 1026.43C815.905 979.124 913.73 755.098 907.309 666.862C900.887 578.625 707.969 759.982 597.349 807.292C486.729 854.601 486.941 864.092 493.363 952.328C499.784 1040.56 594.665 1073.74 705.285 1026.43Z" fill="#FF9F00"/>
<ellipse cx="726" cy="874.095" rx="379" ry="237.5" fill="#9C51B6"/>
<path d="M407.653 888.917C500.797 1016.88 1145.92 1031.63 1421.54 975.053C1697.17 918.479 1229.39 748.713 1136.25 620.751C1043.1 492.789 1013.69 498.211 738.061 554.785C462.437 611.359 314.508 760.955 407.653 888.917Z" fill="#FF9F00"/>
<ellipse rx="169.979" ry="432.349" transform="matrix(0.237573 0.97137 -0.991506 0.13006 1315.94 630.344)" fill="#9C51B6"/>
</g>
<defs>
<filter id="filter0_f_0_1" x="-817.528" y="70.8713" width="4797.23" height="6944.41" filterUnits="userSpaceOnUse" color-interpolation-filters="sRGB">
<feFlood flood-opacity="0" result="BackgroundImageFix"/>
<feBlend mode="normal" in="SourceGraphic" in2="BackgroundImageFix" result="shape"/>
<feGaussianBlur stdDeviation="192.5" result="effect1_foregroundBlur_0_1"/>
</filter>
</defs>
</svg>
