<svg width="71" height="71" viewBox="0 0 71 71" fill="none" xmlns="http://www.w3.org/2000/svg">
<rect x="0.254395" y="0.0168457" width="70.4746" height="70.4746" rx="35.2373" fill="black"/>
<path d="M56.4139 25.0896V32.5732C56.0116 32.5732 55.5288 32.6537 55.0459 32.6537C51.4248 32.6537 48.0451 31.2857 45.47 29.113V45.046C45.47 48.2648 44.4239 51.3227 42.5731 53.7368C39.9981 57.197 35.8137 59.5306 31.066 59.5306C25.9159 59.5306 21.4096 56.7946 18.915 52.7711C21.4901 55.1852 24.9503 56.7142 28.7323 56.7142C33.3996 56.7142 37.584 54.461 40.159 50.9203C41.9294 48.5062 43.056 45.5289 43.056 42.2296V26.2161C45.631 28.4693 48.9302 29.7568 52.6319 29.7568C53.1147 29.7568 53.517 29.7568 53.9998 29.6763V24.8481C54.7241 25.0091 55.3678 25.0896 56.092 25.0896H56.4139V25.0896Z" fill="#FF004F"/>
<path d="M33.0777 30.642V38.9304C32.5144 38.7694 31.8706 38.689 31.3073 38.689C27.7667 38.689 24.8698 41.6663 24.8698 45.2875C24.8698 46.0922 25.0307 46.8164 25.2721 47.5406C23.6627 46.3336 22.5361 44.4023 22.5361 42.2296C22.5361 38.6085 25.433 35.6311 28.9737 35.6311C29.6175 35.6311 30.1808 35.7116 30.744 35.8725V30.5615C30.905 30.5615 31.0659 30.5615 31.2269 30.5615C31.8706 30.5615 32.5144 30.5615 33.0777 30.642Z" fill="#FF004F"/>
<path d="M46.677 19.1347C45.2285 17.8472 44.1824 16.0769 43.6191 14.2261H45.5504C45.5504 14.6284 45.5504 14.9503 45.5504 15.3527C45.7114 16.6402 46.1137 17.9277 46.677 19.1347Z" fill="#FF004F"/>
<path d="M54.0802 24.9285V29.7567C53.6779 29.8372 53.1951 29.8372 52.7122 29.8372C49.0911 29.8372 45.7114 28.4692 43.1364 26.2965V42.2295C43.1364 45.4483 42.0902 48.5062 40.2394 50.9203C37.5839 54.4609 33.48 56.7141 28.8127 56.7141C25.0307 56.7141 21.5705 55.1852 18.9954 52.7711C17.6275 50.5179 16.8228 47.9429 16.8228 45.1264C16.8228 37.3209 23.0189 30.9638 30.744 30.7224V36.0334C30.1807 35.8724 29.537 35.792 28.9737 35.792C25.433 35.792 22.5361 38.7693 22.5361 42.3905C22.5361 44.5632 23.5822 46.5749 25.2721 47.7015C26.1572 50.196 28.5713 52.0468 31.3073 52.0468C34.848 52.0468 37.7449 49.0695 37.7449 45.4483V14.2261H43.6192C44.1825 16.1573 45.2286 17.8472 46.677 19.1347C48.1255 22.0316 50.8614 24.2043 54.0802 24.9285Z" fill="white"/>
<path d="M30.7437 27.8255V30.5615C23.0187 30.8029 16.8225 37.16 16.8225 44.9655C16.8225 47.782 17.6272 50.357 18.9952 52.6102C16.2592 49.9547 14.5693 46.2531 14.5693 42.0686C14.5693 34.1021 21.0069 27.6646 28.8929 27.6646C29.5367 27.6646 30.1805 27.745 30.7437 27.8255Z" fill="#00F7EF"/>
<path d="M43.6191 14.2262H37.7448V45.2875C37.7448 48.9087 34.8479 51.886 31.3072 51.886C28.4908 51.886 26.1571 50.1157 25.272 47.5407C26.3181 48.2649 27.6056 48.7477 28.9736 48.7477C32.5142 48.7477 35.4112 45.8508 35.4112 42.2297V11.0879H43.2167V11.2488C43.2167 11.5707 43.2167 11.8926 43.2972 12.2145C43.2972 12.8582 43.4581 13.5825 43.6191 14.2262Z" fill="#00F7EF"/>
<path d="M54.0804 21.9512V24.8481C50.8616 24.2044 48.1256 22.0317 46.5967 19.1348C48.6084 20.9856 51.1835 22.0317 54.0804 21.9512Z" fill="#00F7EF"/>
</svg>
