<svg width="71" height="71" viewBox="0 0 71 71" fill="none" xmlns="http://www.w3.org/2000/svg">
<rect x="0.525391" y="0.508789" width="70.4746" height="70.4746" rx="35.2373" fill="#24ACFF"/>
<path d="M27.5876 53.6467C44.2055 53.6467 53.3037 39.876 53.3037 27.9306C53.3037 27.543 53.3037 27.1483 53.2756 26.7607C55.0445 25.4781 56.5738 23.8994 57.7859 22.0812C56.1368 22.8141 54.3891 23.2933 52.599 23.5048C54.4877 22.3772 55.8972 20.6012 56.5738 18.5081C54.7978 19.5582 52.8598 20.3052 50.8371 20.6999C47.4121 17.0634 41.6895 16.8872 38.053 20.3052C35.7062 22.5111 34.7126 25.8022 35.4384 28.9384C28.1725 28.5719 21.3999 25.1398 16.812 19.4948C14.4159 23.6246 15.6351 28.9031 19.6099 31.56C18.1722 31.5177 16.7627 31.1301 15.5082 30.4324C15.5082 30.4677 15.5082 30.5099 15.5082 30.5452C15.5082 34.8441 18.5386 38.5511 22.7601 39.4038C21.4281 39.7633 20.0327 39.8196 18.6796 39.5589C19.8636 43.2376 23.2534 45.7606 27.1224 45.8382C23.9229 48.3541 19.9693 49.7213 15.9029 49.7143C15.1841 49.7143 14.4652 49.672 13.7534 49.5804C17.8691 52.2373 22.6825 53.6467 27.5876 53.6397" fill="white"/>
</svg>
