<svg width="904" height="584" viewBox="0 0 904 584" fill="none" xmlns="http://www.w3.org/2000/svg">
<path d="M16.3463 295.432C-38.1454 448.381 56.5778 548.873 110.751 580H781.741C825.358 550.162 868.975 513.14 895.265 402.629C916.297 314.219 895.265 277.5 828.943 230.783C756.447 200.208 672.141 171.764 602 76.9998C555 13.4998 378.43 -32.2348 287.61 31.8617C254.151 52.3067 55.7814 220.837 16.3463 295.432Z" fill="#F2F6FF"/>
<rect x="284" y="123.305" width="35.1974" height="45.9522" fill="#1160A8"/>
<rect x="284" y="284.626" width="35.1974" height="45.9522" fill="#1160A8"/>
<rect x="552.87" y="284.626" width="35.1974" height="45.9522" fill="#1160A8"/>
<rect x="555.802" y="123.305" width="35.1974" height="45.9522" fill="#1160A8"/>
<rect x="285.955" y="126.238" width="302.111" height="201.407" fill="#7CC0FF"/>
<rect x="294.755" y="134.06" width="282.557" height="179.898" fill="white"/>
<rect x="323.109" y="172.189" width="3.91082" height="128.079" fill="#1160A8"/>
<rect x="323.109" y="296.359" width="216.073" height="3.91082" fill="#1160A8"/>
<rect x="339.729" y="234.763" width="19.5541" height="61.5955" fill="#F2F6FF"/>
<rect x="362.216" y="201.521" width="19.5541" height="94.8375" fill="#F2F6FF"/>
<rect x="384.703" y="206.41" width="19.5541" height="89.9489" fill="#F2F6FF"/>
<rect x="408.168" y="234.763" width="19.5541" height="61.5955" fill="#F2F6FF"/>
<rect x="430.655" y="268.983" width="19.5541" height="27.3758" fill="#F2F6FF"/>
<rect x="453.143" y="206.41" width="19.5541" height="89.9489" fill="#F2F6FF"/>
<rect x="475.63" y="192.722" width="19.5541" height="103.637" fill="#F2F6FF"/>
<rect x="498.117" y="189.789" width="19.5541" height="106.57" fill="#F2F6FF"/>
<circle cx="511.806" cy="189.789" r="6.09394" stroke="#CD4825" stroke-width="1.5"/>
<path d="M328.486 262.628C334.515 257.088 347.16 249.233 349.507 262.139C350.484 272.894 359.284 280.226 367.594 263.605C369.941 256.957 376.72 236.067 379.816 226.453C384.378 219.935 394.481 211.2 398.392 228.408C398.392 234.274 399.044 239.978 399.37 242.096C400.022 246.822 403.281 254.317 411.102 246.496C413.058 243.367 413.546 237.37 413.546 234.763C415.339 229.386 420.977 221.857 429.19 234.763C430.363 239.847 430.656 247.962 430.656 251.384C430.493 255.784 431.439 265.365 436.523 268.494C442.878 272.405 448.255 268.005 448.255 260.184C448.255 253.926 449.885 238.022 450.699 230.852C452.818 223.52 458.619 212.08 464.876 224.986C465.658 232.808 465.854 237.044 465.854 238.185C466.994 242.748 471.133 249.429 478.564 239.652C481.693 232.612 483.778 217.164 484.43 210.321C484.756 206.084 487.07 197.121 493.718 195.166C500.367 193.211 508.221 191.744 511.317 191.255" stroke="#1160A8" stroke-width="1.5"/>
<circle cx="440.434" cy="268.983" r="6.09394" stroke="#CA3E1B" stroke-width="1.5"/>
<path d="M739.918 536.151C735.518 519.351 757.418 521.151 768.918 524.151C769.752 524.818 772.018 526.451 774.418 527.651C787.218 534.851 786.085 527.652 783.918 523.152C780.418 515.652 778.418 513.151 763.418 511.151C748.321 509.138 736.918 521.651 732.418 530.651C736.752 539.485 744.318 552.951 739.918 536.151Z" fill="#2D9662"/>
<path d="M757.5 516.5C741.9 516.5 736.667 526.5 736 531.5L736.5 532C740 526 742 518.5 757.5 518.5C773 518.5 775 523 777.5 524.5C779.5 525.7 780 525 780 524.5C779 521.833 773.1 516.5 757.5 516.5Z" fill="#2D8E5A"/>
<path d="M769.418 498.651C779.418 493.051 769.585 489.985 763.418 489.151C759.585 489.151 749.818 491.051 741.418 498.651C728.918 511.651 730.918 528.151 731.918 540.651C732.918 553.151 742.918 558.151 740.418 534.651C737.918 511.151 756.918 505.651 769.418 498.651Z" fill="#3DAE72"/>
<path d="M764.5 495C766.1 493.8 761.5 494.5 759 495C756.333 495.667 749.5 498.7 743.5 505.5C735.9 515.9 734 526.833 734 531C735 533.833 736.8 537.9 736 531.5C735 523.5 741 513 746 505.5C751 498 762.5 496.5 764.5 495Z" fill="#2E8E5B"/>
<path d="M736.147 553.383C721.678 512.128 726.523 478.059 743.418 463.152C747.085 460.818 755.418 456.652 759.418 458.652C764.418 461.152 762.418 469.652 746.418 494.652C734.217 513.716 734.373 540.655 736.147 553.383Z" fill="#329866"/>
<path d="M753 467.5C756.2 461.9 753.333 464.5 751.5 466.5C746 472.999 738 489.5 736 502.5C732.8 512.9 733.667 537.833 734.5 549C735 550.167 736 551.8 736 549C736 545.5 734 516.5 738 499.5C742 482.5 749 474.5 753 467.5Z" fill="#2D8D5A"/>
<path d="M711.918 481.151C715.918 487.551 724.252 523.818 727.918 541.151C727.918 543.651 729.118 549.251 733.918 551.651C738.718 554.051 733.585 502.318 730.418 476.151C728.918 467.651 719.918 459.151 714.418 453.151C708.328 446.506 698.918 444.151 698.418 451.651C697.918 459.151 706.918 473.151 711.918 481.151Z" fill="#2E8E5B"/>
<path d="M709 457C707 451 706.833 454.5 707 457C707 457.334 707.7 459 710.5 463C713.3 467 717 471 718.5 472.5C722.5 482 722 485.5 723 489C723.801 491.803 724 501.5 726 510C728.4 514.4 730.333 527.167 731 533H733C731.5 519.5 726.5 507.5 726 498.5C725.5 489.5 721.5 473.5 719 470C716.5 466.5 711.5 464.5 709 457Z" fill="#3EAF73"/>
<path d="M691.418 497.651C699.418 499.651 718.418 520.151 726.918 530.151C730.918 540.151 738.518 554.551 736.918 532.151C734.918 504.151 713.418 487.151 694.418 476.151C660.918 467.651 681.418 495.151 691.418 497.651Z" fill="#329866"/>
<path d="M686.5 483.5C684.5 479.9 685.666 479.667 686.5 480C686.5 482 693.833 487.167 697.5 489.5C700.5 491.167 707.2 495.1 710 497.5C721 513 717 505.5 721 510.5C732.2 526.5 733 532.833 732 534H730C730 523.5 714 508 712 503C710 498 689 488 686.5 483.5Z" fill="#2D8C59"/>
<path d="M717.418 523.651C731.018 525.251 730.085 532.651 727.918 536.151C731.752 539.318 738.318 542.251 733.918 528.651C729.518 515.051 714.418 510.985 707.418 510.652C703.252 509.819 693.218 510.552 686.418 520.152C679.218 530.552 685.752 531.152 689.918 530.151C693.418 527.318 703.818 522.051 717.418 523.651Z" fill="#3DAE72"/>
<path d="M689.5 525.5C687.1 525.9 689.833 523 691.5 521.5C697.5 515.5 712 516.5 716 516.5C720 516.5 729 519.5 732 526.5C734.4 532.1 736.667 537.5 737 539.5C736.5 540.833 735.5 542.8 735.5 540C735.5 537.2 730.191 528.167 727.537 524C718.642 514.653 708.372 519.009 701 519.5C693.945 519.971 692.5 525 689.5 525.5Z" fill="#2D8C59"/>
<path d="M707.418 536.651C706.618 527.451 712.085 526.818 715.418 527.651H753.918C759.918 527.651 760.418 532.318 759.918 534.651L756.918 551.151C755.918 558.485 753.718 573.751 752.918 576.151C752.118 578.551 747.918 579.818 745.918 580.151H722.918C717.718 580.151 715.752 577.485 715.418 576.151C713.085 566.818 708.218 545.851 707.418 536.651Z" fill="#162131"/>
<path d="M745.918 580.151H728.918C725.718 580.151 725.252 577.485 725.418 576.151C725.252 572.151 723.818 560.451 719.418 545.651C715.018 530.851 719.585 527.485 722.418 527.651H753.918C759.918 527.651 760.418 532.318 759.918 534.651L756.918 551.151C755.918 558.485 753.718 573.751 752.918 576.151C752.118 578.551 747.918 579.818 745.918 580.151Z" fill="#1F2B3E"/>
<path d="M131 486H235V574C235 576.209 233.209 578 231 578H135C132.791 578 131 576.209 131 574V486Z" fill="#A2AAAB"/>
<path d="M147 486H235V574C235 576.209 233.209 578 231 578H151C148.791 578 147 576.209 147 574V486Z" fill="#B8BCBC"/>
<rect x="157" y="537" width="68" height="31" rx="2" fill="#A2AAAB"/>
<circle cx="191" cy="551" r="4" fill="#8D9596"/>
<rect x="157" y="497" width="68" height="31" rx="2" fill="#A2AAAB"/>
<circle cx="191" cy="511" r="4" fill="#8D9596"/>
<rect x="122" y="468" width="121" height="19" rx="4" fill="#B8BCBC"/>
<rect x="131" y="487" width="104" height="5" fill="#8C9799"/>
<rect x="147" y="468" width="96" height="19" rx="4" fill="#A2AAAB"/>
<rect x="144" y="451" width="75" height="17" rx="2" fill="#86B2F3"/>
<path d="M152 444.5C152 440.91 154.91 438 158.5 438H209V451H158.5C154.91 451 152 448.09 152 444.5Z" fill="#339867"/>
<mask id="mask0_312_1248" style="mask-type:alpha" maskUnits="userSpaceOnUse" x="152" y="438" width="57" height="13">
<path d="M152 444.5C152 440.91 154.91 438 158.5 438H209V451H158.5C154.91 451 152 448.09 152 444.5Z" fill="#51C0A6"/>
</mask>
<g mask="url(#mask0_312_1248)">
<path d="M183 449C172.5 448.5 154.167 443.667 150 439.5C149.167 443 147.5 451.6 147.5 458C147.5 466 213.5 454 210.5 452.5C207.5 451 209 447.5 183 449Z" fill="#2A8559"/>
</g>
<path d="M204 432C204 428.686 201.314 426 198 426H147V438H198C201.314 438 204 435.314 204 432Z" fill="#F27559"/>
<path d="M147 429H171C172.657 429 174 430.343 174 432C174 433.657 172.657 435 171 435H147V429Z" fill="#E5EFFE"/>
<path d="M147 429H148V435H147V429Z" fill="#D8E5F8"/>
<path d="M209 442H185C183.343 442 182 443.343 182 445C182 446.657 183.343 448 185 448H209V442Z" fill="#E5EFFE"/>
<path d="M208 442H209V448H208V442Z" fill="#D8E5F8"/>
<circle cx="155" cy="460" r="5" fill="#6D9ADC"/>
<rect x="168" y="455" width="44" height="10" rx="1" fill="#6D9ADC"/>
<ellipse cx="459.561" cy="552.071" rx="136.162" ry="13.4935" fill="#D8E8FF"/>
<path d="M526.415 285.882H518.441C518.032 310.006 519.055 357.619 528.868 357.619C538.682 357.619 540.739 354.553 540.522 351.509C539.295 334.335 536.841 298.516 536.841 292.628C536.841 286.74 529.89 285.677 526.415 285.882Z" fill="#153E55"/>
<path d="M457.721 285.882C450.852 285.882 450.361 290.379 450.974 292.628C452.201 309.189 454.777 343.904 455.268 350.282C455.759 356.661 459.97 357.847 462.015 357.643C479.597 357.438 516.97 357.152 525.802 357.643C534.634 358.133 533.987 353.326 533.775 350.282C532.753 335.562 530.709 304.527 530.709 298.148C531.322 290.175 527.233 286.904 524.575 285.882H457.721Z" fill="#1F4171"/>
<mask id="mask1_312_1248" style="mask-type:alpha" maskUnits="userSpaceOnUse" x="450" y="285" width="84" height="73">
<path d="M457.72 285.879C450.851 285.879 450.36 290.377 450.973 292.626C452.2 309.186 454.776 343.901 455.267 350.28C455.758 356.659 459.969 357.845 462.014 357.64C479.596 357.436 516.969 357.15 525.801 357.64C534.633 358.131 533.775 353.324 533.775 350.28C532.752 335.56 530.708 304.525 530.708 298.146C531.321 290.173 527.232 286.902 524.575 285.879H457.72Z" fill="#163561"/>
</mask>
<g mask="url(#mask1_312_1248)">
<path d="M544.201 332.494C503.475 282.936 462.627 289.764 447.293 299.373L450.974 361.934L541.748 367.454L544.201 332.494Z" fill="#163561"/>
</g>
<path d="M492.067 357.028L496.974 328.201H498.814L502.494 357.028H492.067Z" fill="#0A1D38"/>
<path d="M477.348 328.201L468.761 372.975H493.295L498.815 328.201H477.348Z" fill="#395782"/>
<path d="M377.373 356.417C381.789 362.795 381.666 370.115 381.053 372.977H430.12L427.053 356.417H377.373Z" fill="#F27559"/>
<path d="M444.841 372.976H430.121L427.054 356.393L443.614 363.163L444.841 372.976Z" fill="#FFC3B6"/>
<rect x="278" y="373" width="345" height="9" rx="4.5" fill="#83A7DA"/>
<path d="M330.759 381.561H340.573L338.119 556.976H333.213L330.759 381.561Z" fill="#83A6DA"/>
<path d="M573.642 381.561H583.456L581.003 556.976H576.096L573.642 381.561Z" fill="#83A6DA"/>
<path d="M355.293 380.333H365.107L362.654 550.842H356.52L355.293 380.333Z" fill="#83A6DA"/>
<path d="M541.749 380.333H551.562L549.109 550.842H542.975L541.749 380.333Z" fill="#83A6DA"/>
<path d="M536.112 572.946L540.142 557.277H549.543L548.648 576.08C548.2 577.572 546.678 580.736 544.171 581.452C533.068 583.243 534.172 576.527 536.112 572.946Z" fill="#FFC7C7"/>
<path d="M534.769 577.87C535.127 572.498 541.185 572.647 544.17 573.393C545.513 573.692 548.11 575.005 547.752 577.87C546.319 582.168 541.484 582.049 539.245 581.452C537.902 581.452 535.127 580.736 534.769 577.87Z" fill="#355389"/>
<path d="M538.589 253.404C530.351 239.436 536.947 224.901 541.275 219.38C545.005 218.335 554.616 216.335 563.212 216.693C571.807 217.052 577.538 251.464 579.329 268.626L537.693 297.278C530.53 287.608 537.693 279.52 542.17 276.684C544.409 274.744 546.826 267.372 538.589 253.404Z" fill="#FFB27F"/>
<path d="M570.349 582.559C560.679 585.782 560.948 567.188 562.291 557.488C564.828 555.847 569.901 553.728 569.901 558.384C569.901 563.04 572.587 568.979 573.931 571.367C574.826 573.008 576.617 576.829 576.617 578.977C576.617 581.664 573.483 582.111 570.349 582.559L570.349 582.559Z" fill="#FFC7C7"/>
<path d="M526.5 471.878C521.844 446.091 521.576 404.127 522.023 386.369H583.805C592.759 402.844 586.823 465.106 581.899 493.311L572.492 557.961H559.182L553.81 428.004H552.019V557.961H538.588C535.156 531.1 527.933 485.13 526.5 471.878Z" fill="url(#paint0_linear_312_1248)"/>
<path d="M520.68 292.354C505.637 313.127 498.892 347.569 497.4 362.194L510.83 360.85L519.784 351.001L521.575 389.055C544.139 399.441 572.761 391.89 584.252 386.817L587.386 348.763C588.729 350.106 591.684 353.329 592.758 355.478C594.101 358.164 611.114 367.118 611.561 365.775C612.009 364.432 606.637 333.093 605.294 326.826C604.219 321.812 598.578 305.336 595.892 297.726C592.758 291.906 585.595 277.042 582.013 264.149C577.537 248.032 549.739 285.738 547.5 283.5C545.262 281.261 531.872 279.371 520.68 292.354Z" fill="url(#paint1_linear_312_1248)"/>
<path d="M497.4 367.566C497.758 372.58 520.232 375.625 531.425 376.52C535.155 376.52 547.81 377.415 568.583 376.52C594.525 375.402 571.269 367.566 566.792 366.223C562.747 365.009 537.245 359.955 516.651 358.165C496.057 356.374 496.952 361.298 497.4 367.566Z" fill="#F8AA77"/>
<path d="M611.113 364.879C611.83 355.925 597.086 356.671 589.624 358.164C586.341 358.462 574.402 360.044 552.913 363.984C523.545 376.519 562.166 376.967 585.147 375.624C593.504 375.773 610.397 373.833 611.113 364.879Z" fill="#FFB889"/>
<path d="M562.739 577.634C562.381 574.769 568.559 574.052 571.693 574.052C572.737 573.903 574.916 573.694 575.274 574.052C577.512 579.872 576.169 579.872 575.274 581.215C574.558 582.29 569.603 582.857 567.216 583.006C565.872 582.409 563.097 580.499 562.739 577.634Z" fill="#355389"/>
<path d="M530.977 225.647C522.381 223.498 536.051 215.499 543.96 211.768C556.943 205.053 571.717 205.948 578.433 213.559C585.148 221.17 585.596 235.496 585.596 242.659C585.596 248.389 595.743 271.908 600.817 282.951C599.176 286.085 593.206 292.353 582.462 292.353C563.211 287.876 561.868 260.567 564.106 256.985C566.345 253.404 567.688 242.659 567.24 239.525C566.793 236.391 562.763 233.257 560.973 235.496C559.182 237.734 557.391 236.391 556.496 232.362C555.6 228.333 549.78 225.199 547.094 224.304C544.945 223.587 540.528 225.199 538.588 226.094C537.991 226.244 535.633 226.363 530.977 225.647Z" fill="#30215A"/>
<path d="M336.569 551.895C337.415 550.415 337.45 541.762 337.362 537.621L353.107 536.046C353.113 535.145 353.174 535.493 353.223 536.035L353.107 536.046C353.101 536.76 353.129 538.255 353.223 541.057C353.434 547.401 364.766 551.278 370.405 552.424C372.432 553.041 377.384 555.015 380.979 557.975C387.587 566.434 378.864 567.756 375.692 569.342C373.154 570.611 364.766 569.871 360.889 569.342C359.038 568.549 353.646 567.121 346.879 567.756C334.454 575.686 335.512 553.746 336.569 551.895Z" fill="#1C4385"/>
<mask id="mask2_312_1248" style="mask-type:alpha" maskUnits="userSpaceOnUse" x="335" y="535" width="49" height="36">
<path d="M336.569 551.896C337.415 550.415 337.45 541.762 337.362 537.621L353.106 536.047C353.113 535.145 353.173 535.494 353.223 536.035L353.106 536.047C353.101 536.76 353.129 538.256 353.223 541.057C353.434 547.402 364.766 551.279 370.405 552.424C372.432 553.041 377.384 555.015 380.979 557.975C387.587 566.434 378.864 567.756 375.692 569.342C373.154 570.611 364.766 569.871 360.889 569.342C359.038 568.549 353.646 567.122 346.878 567.756C334.454 575.686 335.512 553.746 336.569 551.896Z" fill="#EA4949"/>
</mask>
<g mask="url(#mask2_312_1248)">
<path d="M356.924 552.689C349.945 550.997 348.729 544.582 348.993 541.586L351.108 538.679L376.75 551.896L371.198 555.332C369.348 555.156 363.902 554.381 356.924 552.689Z" fill="#193E7C"/>
<path d="M374.37 553.746C368.026 553.957 366.264 562.822 366.176 567.227L368.291 572.514L383.887 571.192L384.944 561.412C384.063 558.768 380.715 553.534 374.37 553.746Z" fill="#E5E5E5"/>
<path d="M349.786 546.873C350.579 545.992 352.641 544.282 354.545 544.494M353.752 551.103C354.985 549.869 357.664 547.507 358.51 547.93M359.303 553.482C360.272 552.16 362.422 549.622 363.268 550.045M364.854 554.275C365.559 553.217 367.18 551.208 368.026 551.631" stroke="#2A5297"/>
<path d="M340.005 563.527C339.582 561.624 336.657 561.501 335.247 561.677C332.604 571.458 346.085 571.722 350.579 572.251C355.073 572.779 380.45 570.665 383.622 568.814C386.16 567.334 383.622 564.673 382.036 563.527C380.185 568.021 373.048 566.964 369.612 567.493C365.871 568.068 359.038 564.32 351.372 565.113C343.706 565.906 340.534 565.907 340.005 563.527Z" fill="#202750"/>
</g>
<path d="M298.197 552.125C300.524 547.473 299.167 539.965 298.197 536.793L316.437 536C317.406 539.349 319.451 546.838 319.874 550.011C320.402 553.976 326.747 557.941 335.734 558.205C344.722 558.469 345.515 566.664 345.251 569.308C345.039 571.422 337.056 572.127 333.091 572.215C323.574 571.687 304.277 570.629 303.22 570.629C301.898 570.629 296.083 569.572 295.29 569.308C294.497 569.043 295.29 557.941 298.197 552.125Z" fill="#1C4385"/>
<mask id="mask3_312_1248" style="mask-type:alpha" maskUnits="userSpaceOnUse" x="295" y="536" width="51" height="37">
<path d="M298.197 552.125C300.524 547.473 299.167 539.965 298.197 536.793L316.437 536C317.406 539.348 319.451 546.838 319.874 550.01C320.402 553.975 326.747 557.941 335.734 558.205C344.722 558.469 345.515 566.664 345.251 569.307C345.039 571.422 337.056 572.127 333.091 572.215C323.574 571.686 304.277 570.629 303.22 570.629C301.898 570.629 296.083 569.572 295.29 569.307C294.497 569.043 295.29 557.941 298.197 552.125Z" fill="#1C4385"/>
</mask>
<g mask="url(#mask3_312_1248)">
<path d="M313.265 545.252C314.586 545.429 317.494 545.622 318.551 544.988M315.115 551.597C316.26 551.685 318.816 551.702 319.873 551.068M321.988 557.412C322.693 556.972 324.155 555.932 324.367 555.297M327.803 559.527C328.244 559.174 329.178 558.258 329.389 557.412M294.496 555.297C297.756 554.152 304.964 554.346 307.713 564.285C308.348 571.475 307.273 576.092 306.656 577.502C300.224 574.242 287.359 567.563 287.359 566.929C287.359 566.294 292.117 558.91 294.496 555.297Z" stroke="#2A5297" stroke-width="1.5"/>
<path d="M320.666 556.883C314.111 553.711 312.824 544.635 313.001 540.494L318.552 537.851L338.642 554.769L334.941 560.849C332.914 560.849 327.222 560.055 320.666 556.883Z" fill="#193E7C"/>
<path d="M331.24 571.158C329.548 564.18 332.826 559.615 334.676 558.205C339.434 552.919 348.687 564.55 350.008 569.308C351.33 574.066 333.355 579.882 331.24 571.158Z" fill="#E5E5E5"/>
<path d="M310.886 569.836C293.175 568.779 294.32 566.135 293.175 564.02C291.853 576.709 309.3 573.008 326.482 573.008C339.593 576.18 345.603 573.008 346.572 567.457C340.016 571.052 329.918 571.069 325.689 570.629L310.886 569.836Z" fill="#202750"/>
<path d="M313.529 544.724C314.672 544.724 316.965 544.195 318.816 544.988M315.379 550.539C317.077 550.135 319.08 550.123 320.054 550.123M318.478 555.298C319.996 554.68 321.507 553.534 322.252 553.976M322.517 557.412C323.671 556.881 325.159 555.77 326.217 556.355" stroke="#2A5297"/>
</g>
<path d="M296.653 433.205C291.892 415 296.83 399.104 298.768 393.024L345.557 390.91L343.706 421.045C342.385 430.209 339.635 449.647 339.212 454.088C338.79 458.529 330.753 490.831 326.788 506.428L317.801 540.264C316.109 542.167 304.407 541.057 298.768 540.264C298.063 537.796 296.336 528.897 295.067 513.036C293.798 497.176 297.006 475.94 298.768 467.305C300.09 459.551 300 446 296.653 433.205Z" fill="#1D468A"/>
<path d="M367.497 436.64L369.083 390.116L334.454 385.622C333.573 418.136 331.599 485.597 330.753 495.324C329.907 505.052 332.868 529.337 334.454 540.263C341.221 543.012 351.019 541.408 355.073 540.263C357.54 524.931 362.791 492.417 364.06 485.015C366.598 476.767 367.409 449.329 367.497 436.64Z" fill="#24467C"/>
<path d="M355.424 296.381C355.395 296.352 355.366 296.324 355.337 296.296C355.337 295.932 355.362 295.869 355.424 296.381C359.784 300.719 369.484 315.226 374.106 339.384L376.749 359.738C376.749 361.642 374.106 370.753 372.784 375.07L367.233 368.99C364.501 363.087 358.668 345.358 357.188 321.673C356.089 304.098 355.602 297.856 355.424 296.381Z" fill="url(#paint2_linear_312_1248)"/>
<path d="M368.554 374.255C366.017 371.929 367.144 369.762 368.026 368.969C369.347 368.792 372.097 369.127 372.52 371.876C372.943 374.626 370.405 379.719 369.083 381.921C369.436 380.247 369.823 376.37 368.554 374.255Z" fill="#8C4949"/>
<path d="M313.043 283.057C304.584 283.691 295.42 290.018 291.895 293.102L301.676 357.073C299.649 367.558 295.702 389.587 296.125 393.817C296.653 399.103 304.319 399.896 323.352 403.333C338.578 406.082 356.659 402.892 363.797 400.954C366.352 399.72 371.515 396.936 371.727 395.667C371.991 394.081 371.727 392.23 369.876 388.53C368.026 384.829 371.727 376.899 368.026 368.704C359.303 354.694 361.417 303.675 356.395 297.596C351.954 291.04 341.856 286.229 337.362 284.643C328.692 288.238 318.77 283.673 314.893 280.942L313.043 283.057Z" fill="#F99744"/>
<path d="M351.109 314.779L351.373 328.26C350.051 329.23 345.452 332.067 337.627 335.662C329.803 339.257 329.785 332.754 330.754 329.053V314.779C336.464 311.607 346.703 313.457 351.109 314.779Z" fill="#E3E9EE"/>
<path d="M330.225 320.858C326.207 321.281 329.432 323.678 331.547 324.824L332.34 326.674C331.9 326.85 330.648 327.044 329.168 326.409C327.318 325.616 325.996 323.766 326.525 320.594C326.948 318.056 330.226 317.951 331.812 318.215L333.662 320.33C333.398 320.418 332.34 320.647 330.225 320.858Z" fill="#E3E9EE"/>
<path d="M326.524 343.857L320.18 338.57L328.639 327.731C328.639 327.203 328.956 325.247 330.225 321.652C331.917 317.634 332.339 319.097 332.339 320.33V329.318C344.605 331.856 350.315 323.855 351.637 319.537C351.637 320.242 351.689 321.811 351.901 322.445C352.958 321.599 353.223 322.797 353.223 323.502C352.694 324.559 351.742 326.674 352.165 326.674C352.588 326.674 352.87 327.203 352.958 327.467C353.17 328.313 351.108 333.547 348.993 335.926C347.407 338.834 339.477 340.156 336.04 339.363C333.736 338.831 331.635 339.803 330.753 340.684L326.524 343.857Z" fill="#FFBA8C"/>
<path d="M303.5 293C293.138 285.175 282.291 299.447 280 307.641C277.262 314.778 277.092 349.408 277.621 366.854C278.149 384.301 290.045 385.094 305.377 375.049C317.642 367.013 326.348 349.319 329.168 341.477L322.559 335.926L302.469 347.293L305.377 313.193C306.082 309.404 309.633 300.19 303.5 293Z" fill="url(#paint3_linear_312_1248)"/>
<path d="M332.604 315.572C336.833 315.307 345.979 314.937 348.729 315.572C352.165 316.365 334.19 318.215 332.604 315.572Z" fill="#64403C"/>
<path d="M333.925 323.238C334.454 321.475 335.881 319.008 337.362 323.238C338.419 325.987 340.446 323.854 341.327 322.445C341.855 321.652 343.389 320.541 345.292 322.445C346.349 323.713 347.495 322.268 347.935 321.387" stroke="black"/>
<path d="M335.776 327.203C336.657 326.498 338.683 325.564 339.741 327.467C341.063 329.846 342.384 327.732 342.649 327.203C342.913 326.674 344.763 326.145 345.292 326.674" stroke="black"/>
<path d="M312.778 286.229C318.699 281.576 320.356 269.663 320.444 264.288L338.683 272.747C335.511 283.057 338.948 288.344 338.683 292.044C338.419 295.745 305.376 292.044 312.778 286.229Z" fill="#FFB27F"/>
<path d="M337.362 282.528C329.749 282.317 322.471 273.629 319.915 269.311C324.145 275.655 333.485 277.418 337.626 277.506C337.362 278.827 337.362 281.735 337.362 282.528Z" fill="#E69964"/>
<path d="M347.671 253.98C347.671 242.348 343.97 236.973 342.12 235.74C333.396 224.637 320.708 240.234 314.628 246.049C309.764 250.702 312.954 259.09 315.157 262.703C317.095 265.17 321.395 270.58 323.087 272.484C325.202 274.863 328.638 276.449 337.097 277.506C345.556 278.563 347.671 268.518 347.671 253.98Z" fill="#FFB27F"/>
<path d="M332.868 227.016C325.678 224.479 319.651 229.307 317.536 232.039C306.698 238.119 308.02 242.613 307.491 250.543C307.068 256.887 315.157 269.487 319.122 274.862L320.972 264.817C319.21 263.936 315.157 261.222 315.157 257.416C316.214 251.283 320.356 254.86 322.294 257.416L322 251C321.735 247.5 321.765 248.5 321.765 244.727C322 240.5 323.5 237.5 325.466 238.119C330.5 239.5 335.247 238.647 340.005 238.119C345.729 237.483 346.078 232.931 346.341 229.507L346.349 229.395C346.614 225.959 342.12 226.752 341.591 227.016C340.27 228.338 338.155 228.074 332.868 227.016Z" fill="#30215A"/>
<circle cx="323.087" cy="565.64" r="1.58606" fill="#2A5297"/>
<circle cx="317.272" cy="565.64" r="1.58606" fill="#2A5297"/>
<circle cx="306.699" cy="546.607" r="3.70081" fill="#2A5297"/>
<defs>
<linearGradient id="paint0_linear_312_1248" x1="538.819" y1="360.011" x2="641.848" y2="397.722" gradientUnits="userSpaceOnUse">
<stop stop-color="#398B79"/>
<stop offset="1" stop-color="#2DA58A"/>
</linearGradient>
<linearGradient id="paint1_linear_312_1248" x1="559.721" y1="259.71" x2="559.721" y2="394.252" gradientUnits="userSpaceOnUse">
<stop stop-color="#00A3FE"/>
<stop offset="1" stop-color="#0047FE"/>
</linearGradient>
<linearGradient id="paint2_linear_312_1248" x1="375.159" y1="303.08" x2="346.84" y2="309.686" gradientUnits="userSpaceOnUse">
<stop stop-color="#FFB372"/>
<stop offset="1" stop-color="#FF9D2B"/>
</linearGradient>
<linearGradient id="paint3_linear_312_1248" x1="325.321" y1="298.72" x2="267.104" y2="327.267" gradientUnits="userSpaceOnUse">
<stop stop-color="#FFB372"/>
<stop offset="1" stop-color="#FF9D2B"/>
</linearGradient>
</defs>
</svg>
