<?xml version="1.0" standalone="no"?>
<!DOCTYPE svg PUBLIC "-//W3C//DTD SVG 20010904//EN"
 "http://www.w3.org/TR/2001/REC-SVG-20010904/DTD/svg10.dtd">
<svg version="1.0" xmlns="http://www.w3.org/2000/svg"
 width="260.000000pt" height="260.000000pt" viewBox="0 0 260.000000 260.000000"
 preserveAspectRatio="xMidYMid meet">
<metadata>
Created by potrace 1.14, written by Peter Selinger 2001-2017
</metadata>
<g transform="translate(0.000000,260.000000) scale(0.100000,-0.100000)"
fill="#000000" stroke="none">
<path d="M582 1960 c-158 -38 -305 -142 -396 -278 -226 -340 -104 -803 257
-980 77 -37 97 -44 172 -61 41 -8 211 -7 260 3 102 20 236 91 317 168 l37 35
-36 59 c-21 32 -41 61 -45 62 -4 2 -8 7 -8 12 0 5 -28 52 -62 105 -62 96 -63
97 -78 74 -138 -213 -429 -202 -534 21 -31 67 -30 188 3 254 83 168 283 221
435 116 47 -32 67 -56 149 -187 29 -45 77 -121 107 -169 220 -349 265 -405
370 -468 388 -230 876 -25 990 418 36 140 13 349 -52 464 -55 98 -72 122 -136
183 -95 92 -216 156 -332 177 -19 3 -84 6 -145 6 -93 -1 -122 -5 -189 -28
-105 -36 -276 -149 -276 -183 0 -8 76 -130 173 -275 30 -45 47 -59 47 -39 0 4
18 29 40 54 143 163 395 126 492 -72 33 -66 32 -187 0 -253 -94 -191 -329
-232 -477 -82 -40 40 -62 73 -293 444 -133 212 -160 247 -239 307 -115 86
-224 123 -373 128 -77 3 -125 -1 -178 -15z"/>
</g>
</svg>
